<?xml version="1.0" encoding="UTF-8"?>
<svg version="1.1" xmlns="http://www.w3.org/2000/svg" width="1024" height="682" viewBox="370 230 290 210">
<path d="M0 0 C1.39156577 0.18118242 2.78349986 0.35955758 4.17578125 0.53515625 C6.26386017 0.80134195 8.3519008 1.06760148 10.43945312 1.33789062 C13.31741893 1.70278047 16.09547989 2 19 2 C19 2.66 19 3.32 19 4 C20.32 3.67 21.64 3.34 23 3 C23 3.66 23 4.32 23 5 C28.3212615 6.08318169 33.63486869 7.152874 39 8 C39 8.66 39 9.32 39 10 C40.98 9.34 42.96 8.68 45 8 C45 9.32 45 10.64 45 12 C45.9590625 12.1546875 45.9590625 12.1546875 46.9375 12.3125 C51.06477326 13.23903073 55.00642949 14.61660629 59 16 C59 16.66 59 17.32 59 18 C60.093125 18.28875 61.18625 18.5775 62.3125 18.875 C66 20 66 20 69 22 C71.33199388 22.07905064 73.66832622 22.08798769 76 22 C76 21.34 76 20.68 76 20 C77.49660156 19.36384766 77.49660156 19.36384766 79.0234375 18.71484375 C81.60442134 17.60972636 84.17036473 16.4776427 86.7265625 15.31640625 C95.01456944 11.57186931 103.22392244 8.45315554 112 6 C113.22589844 5.60361328 113.22589844 5.60361328 114.4765625 5.19921875 C127.62380555 1.129834 141.95088461 0.04722845 155.625 -0.9375 C156.41197266 -1.00727051 157.19894531 -1.07704102 158.00976562 -1.14892578 C161.47863441 -1.34987567 163.51046795 -1.34362917 166.3984375 0.68359375 C169.76930167 5.55901437 170.29492594 9.90517685 170.2746582 15.72436523 C170.27976913 16.48598969 170.28488007 17.24761414 170.29014587 18.03231812 C170.30400591 20.54115738 170.30308788 23.04972083 170.30078125 25.55859375 C170.30467006 27.30827435 170.30900511 29.05795401 170.31376648 30.80763245 C170.32122089 34.4718024 170.32094299 38.13587598 170.31567383 41.80004883 C170.30987919 46.48862257 170.32681374 51.17680127 170.3500185 55.86530972 C170.36477129 59.47791336 170.36562546 63.09042218 170.36250877 66.70305061 C170.36302117 68.43136439 170.36824366 70.15968359 170.37832069 71.88796806 C170.39069839 74.30765113 170.38388595 76.72656883 170.37231445 79.14624023 C170.37995819 79.8555217 170.38760193 80.56480316 170.39547729 81.295578 C170.34693269 85.90302942 169.49221753 89.1150244 167 93 C164.3125 93.875 164.3125 93.875 162 94 C161.67 94.99 161.34 95.98 161 97 C160.34 96.67 159.68 96.34 159 96 C159 96.66 159 97.32 159 98 C159.680625 97.835 160.36125 97.67 161.0625 97.5 C164.4164822 96.92910941 167.60389805 96.93340977 171 97 C173.58828669 92.50238012 174.36702576 89.31134482 174.32470703 84.14013672 C174.32353882 83.48244293 174.32237061 82.82474915 174.32116699 82.14712524 C174.31402703 79.99098218 174.28585861 77.83565085 174.2578125 75.6796875 C174.24966793 74.17327583 174.24300773 72.66685547 174.23776245 71.16043091 C174.22069431 67.20643514 174.18647013 63.25278585 174.14770508 59.2989502 C174.08836737 52.96417155 174.05459688 46.62921662 174.02193832 40.2942543 C174.00800415 38.0850729 173.98641093 35.87606773 173.96365356 33.66696167 C173.95362861 32.31166708 173.94376287 30.95637131 173.93408203 29.60107422 C173.92281281 28.4200412 173.91154358 27.23900818 173.89993286 26.02218628 C173.98483861 23.45789791 174.09924831 21.39366627 175 19 C177.83029148 17.58485426 180.28379133 17.79219008 183.4375 17.75 C184.59121094 17.72421875 185.74492188 17.6984375 186.93359375 17.671875 C190 18 190 18 191.65966797 19.02047729 C193.75461937 22.11448965 193.4815661 25.38465319 193.51171875 29.00048828 C193.53905342 30.2230407 193.53905342 30.2230407 193.56694031 31.47029114 C193.62270454 34.17026625 193.65621112 36.86994998 193.6875 39.5703125 C193.71705219 41.450194 193.74717092 43.33006668 193.77783203 45.20993042 C193.83830228 49.15584092 193.88690915 53.10169607 193.92822266 57.04785156 C193.98263728 62.08875386 194.0737579 67.12823061 194.17494202 72.16838264 C194.24754303 76.05457954 194.29655264 79.94081745 194.33901978 83.8274498 C194.36283844 85.68458085 194.39476575 87.54162715 194.43515015 89.39847183 C194.82071901 108.04404126 194.82071901 108.04404126 189 115 C188.319375 115.825 187.63875 116.65 186.9375 117.5 C183.75421063 119.96448209 180.44294896 120.12899919 176.5078125 120.31640625 C175.21170044 120.3793689 175.21170044 120.3793689 173.8894043 120.44360352 C172.97715088 120.48283936 172.06489746 120.5220752 171.125 120.5625 C170.19276611 120.6049585 169.26053223 120.64741699 168.30004883 120.69116211 C160.86155251 121.00950644 153.44543591 121.11262004 146 121 C145.67 121.66 145.34 122.32 145 123 C144.34 122.67 143.68 122.34 143 122 C143 122.66 143 123.32 143 124 C147.76922298 123.90632155 152.5379469 123.80019614 157.30664062 123.68261719 C158.92830859 123.64437642 160.55005996 123.60951497 162.171875 123.578125 C164.50551117 123.53236743 166.83857562 123.47439184 169.171875 123.4140625 C169.89493835 123.40251129 170.61800171 123.39096008 171.36297607 123.37905884 C175.14250239 123.26868606 177.69287819 122.77527211 181 121 C181.99 121.33 182.98 121.66 184 122 C184 121.34 184 120.68 184 120 C187.465 119.01 187.465 119.01 191 118 C191 117.34 191 116.68 191 116 C191.66 116 192.32 116 193 116 C193.33 121.61 193.66 127.22 194 133 C193.34 133 192.68 133 192 133 C191.79375 133.7425 191.5875 134.485 191.375 135.25 C189.61514529 138.76970941 187.56886872 140.50100272 184 142 C180.23269947 142.59709015 176.50413792 142.60487898 172.6953125 142.609375 C171.61619598 142.62591125 170.53707947 142.64244751 169.42526245 142.65948486 C165.99178346 142.70791859 162.55874728 142.72932636 159.125 142.75 C156.79164445 142.77816342 154.45830948 142.80809136 152.125 142.83984375 C146.41674693 142.91367634 140.70861815 142.96534604 135 143 C135.99 145.475 135.99 145.475 137 148 C137.99 148 138.98 148 140 148 C142.00985483 148.0254346 144.01970878 148.05094265 146.02955627 148.07695007 C149.4661703 148.11706619 152.90283495 148.14149588 156.33959961 148.16479492 C158.14238795 148.17982759 159.94514006 148.20025932 161.74780273 148.22631836 C173.10034605 148.38594883 182.70079708 148.29258607 193 143 C194.29581666 162.75052423 194.29581666 162.75052423 189.9375 168.5 C187.9765625 170.44140625 187.9765625 170.44140625 186 172 C185.20722656 172.66322266 185.20722656 172.66322266 184.3984375 173.33984375 C175.73471841 179.33616164 163.00673627 178.26572512 152.9796772 178.15032959 C150.69417234 178.12432022 148.4089053 178.11165127 146.12327576 178.10205078 C140.45075068 178.07560248 134.77845599 178.02716854 129.1060791 177.97924805 C124.2944198 177.93945255 119.48284704 177.90831745 114.67106438 177.88812256 C112.44392248 177.87537222 110.21715208 177.85036791 107.99012756 177.82470703 C96.56566382 177.74143694 86.04412574 178.91253203 75.15625 182.39453125 C72.33532562 183.18663864 69.9055166 183.35433129 67 183 C65.515 182.01 65.515 182.01 64 181 C59.03770251 179.31340306 54.30294231 178.62092116 49.09765625 178.3671875 C48.01380898 178.30484421 48.01380898 178.30484421 46.9080658 178.24124146 C44.62655292 178.11170606 42.34462684 177.99316994 40.0625 177.875 C38.50451659 177.78849037 36.94657315 177.70125762 35.38867188 177.61328125 C31.59285854 177.40049647 27.79663462 177.19756603 24 177 C23.67 177.66 23.34 178.32 23 179 C23 178.34 23 177.68 23 177 C21.73929687 177.0721875 20.47859375 177.144375 19.1796875 177.21875 C2.82172301 178.1081304 -13.60106918 178.83984979 -29.9375 177.25 C-30.65252686 177.1883667 -31.36755371 177.1267334 -32.10424805 177.06323242 C-37.31075898 176.46556047 -40.67419645 174.77483096 -45 172 C-45 171.34 -45 170.68 -45 170 C-45.66 170 -46.32 170 -47 170 C-50.82181867 164.32866667 -51.68752806 159.96252752 -51.875 153.1875 C-51.92140625 152.32962891 -51.9678125 151.47175781 -52.015625 150.58789062 C-52.20619337 145.92995983 -52.20619337 145.92995983 -52 144 C-51.01 143.01 -51.01 143.01 -50 142 C-49.5875 142.45375 -49.175 142.9075 -48.75 143.375 C-43.14508441 148.57956447 -35.35582807 148.18870296 -28.125 148.5625 C-27.34125 148.60568359 -26.5575 148.64886719 -25.75 148.69335938 C-23.83349351 148.79853351 -21.91676667 148.89967925 -20 149 C-19.67 148.34 -19.34 147.68 -19 147 C-19 147.66 -19 148.32 -19 149 C-17.76636719 148.75636719 -17.76636719 148.75636719 -16.5078125 148.5078125 C-12.61012297 147.943559 -8.8024238 147.8531405 -4.875 147.875 C-3.82119141 147.86919922 -3.82119141 147.86919922 -2.74609375 147.86328125 C0.64247637 147.86968686 3.76159329 147.94290351 7 149 C7.6814823 147.10820797 7.6814823 147.10820797 8 145 C5.52080855 142.52080855 4.78590248 142.74598109 1.37011719 142.72875977 C-0.07213226 142.71347984 -0.07213226 142.71347984 -1.54351807 142.69789124 C-2.58618835 142.69575119 -3.62885864 142.69361115 -4.703125 142.69140625 C-6.90234632 142.66623878 -9.101565 142.64084087 -11.30078125 142.61523438 C-14.77456947 142.5865193 -18.24831186 142.56250914 -21.72216797 142.54370117 C-25.07023421 142.52201619 -28.41774974 142.48256351 -31.765625 142.44140625 C-32.80019836 142.44129044 -33.83477173 142.44117462 -34.9006958 142.4410553 C-40.27847763 142.36741561 -44.45983265 142.22761796 -49 139 C-51.76695795 135.04648528 -51.52133415 130.54420915 -51.75 125.875 C-51.80542969 125.05128906 -51.86085938 124.22757812 -51.91796875 123.37890625 C-52.03265229 121.25552312 -52.02496671 119.12633132 -52 117 C-51.01 116.01 -51.01 116.01 -50 115 C-49.690625 115.598125 -49.38125 116.19625 -49.0625 116.8125 C-45.97393609 120.0882496 -42.24510604 120.79260571 -38 122 C-37.01 122.33 -36.02 122.66 -35 123 C-33.39651416 123.04673183 -31.79122668 123.037569 -30.1875 123 C-20.44823593 122.90369084 -10.72413525 123.51197613 -1 124 C-0.67 123.34 -0.34 122.68 0 122 C0 122.66 0 123.32 0 124 C0.66 124 1.32 124 2 124 C0.22768742 121.71825549 -0.62120525 121.04848398 -3.53686523 120.67529297 C-4.53403564 120.69736816 -5.53120605 120.71944336 -6.55859375 120.7421875 C-7.66783203 120.75636719 -8.77707031 120.77054687 -9.91992188 120.78515625 C-11.66112305 120.82962891 -11.66112305 120.82962891 -13.4375 120.875 C-40.96105851 121.4106617 -40.96105851 121.4106617 -47.8125 115.625 C-51.68191585 110.98170098 -51.13917879 106.21147793 -51.11352539 100.37597656 C-51.11367142 99.50732468 -51.11381744 98.63867279 -51.1139679 97.74369812 C-51.11327191 94.87598157 -51.10549415 92.00833019 -51.09765625 89.140625 C-51.09579096 87.1509403 -51.09436758 85.16125515 -51.09336853 83.17156982 C-51.08955212 77.93714121 -51.07972929 72.70274039 -51.06866455 67.46832275 C-51.05843162 62.12602108 -51.05386687 56.78371491 -51.04882812 51.44140625 C-51.03810626 40.9609253 -51.02104032 30.48046496 -51 20 C-50.34 20 -49.68 20 -49 20 C-49 19.34 -49 18.68 -49 18 C-46.89611431 17.94597726 -44.79183286 17.90719744 -42.6875 17.875 C-41.51574219 17.85179687 -40.34398437 17.82859375 -39.13671875 17.8046875 C-36 18 -36 18 -33 20 C-32.62145996 22.94026184 -32.62145996 22.94026184 -32.61523438 26.75708008 C-32.6098616 27.45159775 -32.60448883 28.14611542 -32.59895325 28.86167908 C-32.58915919 30.37200447 -32.58623602 31.88238623 -32.58930969 33.39274025 C-32.59377834 35.78469897 -32.57981417 38.17591404 -32.56091309 40.5677948 C-32.5240697 45.64935087 -32.51041792 50.73083002 -32.5 55.8125 C-32.48792192 61.69063606 -32.46633791 67.56841191 -32.41999817 73.44638634 C-32.40643366 75.80016107 -32.41059863 78.15347998 -32.41540527 80.50727844 C-32.40606157 81.95643694 -32.39589197 83.40559042 -32.38476562 84.85473633 C-32.38271118 86.11667313 -32.38065674 87.37860992 -32.37854004 88.67878723 C-31.97062972 92.25768725 -31.18687749 94.16367403 -29 97 C-26.74660502 97.8106196 -26.74660502 97.8106196 -24.3125 97.8125 C-23.50425781 97.86019531 -22.69601562 97.90789062 -21.86328125 97.95703125 C-21.24839844 97.97121094 -20.63351562 97.98539062 -20 98 C-20 97.01 -20 96.02 -20 95 C-20.763125 94.773125 -21.52625 94.54625 -22.3125 94.3125 C-25.70288456 92.6567308 -26.40293119 91.39868088 -28 88 C-28.28385954 85.41890884 -28.41092949 83.08340284 -28.38818359 80.50683594 C-28.39344055 79.76953751 -28.39869751 79.03223907 -28.40411377 78.27259827 C-28.41728144 75.84297282 -28.40858384 73.41400677 -28.3984375 70.984375 C-28.40046004 69.28672155 -28.40337297 67.58906895 -28.40713501 65.89141846 C-28.41155471 62.33394089 -28.405142 58.77668951 -28.39111328 55.21923828 C-28.37407371 50.67890139 -28.38383141 46.13909862 -28.40183067 41.59878159 C-28.41272278 38.09155325 -28.40919652 34.58444939 -28.4014473 31.0772171 C-28.39945754 29.40442083 -28.40186116 27.73161296 -28.40888596 26.05883026 C-28.46362966 9.35042229 -28.46362966 9.35042229 -25 2 C-21.47586157 -0.34942562 -19.50164248 -0.41124304 -15.3125 -0.6875 C-14.13300781 -0.77386719 -12.95351563 -0.86023438 -11.73828125 -0.94921875 C-7.74352144 -1.00348403 -3.93905632 -0.57856799 0 0 Z M-19 96 C-19 96.66 -19 97.32 -19 98 C-18.34 97.67 -17.68 97.34 -17 97 C-17.66 96.67 -18.32 96.34 -19 96 Z " fill="#0E91F8" transform="translate(441,248)"/>
<path d="M0 0 C1.39156577 0.18118242 2.78349986 0.35955758 4.17578125 0.53515625 C6.26386017 0.80134195 8.3519008 1.06760148 10.43945312 1.33789062 C13.31741893 1.70278047 16.09547989 2 19 2 C19 2.66 19 3.32 19 4 C20.32 3.67 21.64 3.34 23 3 C23 3.66 23 4.32 23 5 C28.3212615 6.08318169 33.63486869 7.152874 39 8 C39 8.66 39 9.32 39 10 C40.98 9.34 42.96 8.68 45 8 C45 9.32 45 10.64 45 12 C45.9590625 12.1546875 45.9590625 12.1546875 46.9375 12.3125 C51.06477326 13.23903073 55.00642949 14.61660629 59 16 C59 16.66 59 17.32 59 18 C60.093125 18.28875 61.18625 18.5775 62.3125 18.875 C66 20 66 20 69 22 C71.33199388 22.07905064 73.66832622 22.08798769 76 22 C76 21.34 76 20.68 76 20 C76.99773437 19.57589844 77.99546875 19.15179688 79.0234375 18.71484375 C81.60442134 17.60972636 84.17036473 16.4776427 86.7265625 15.31640625 C95.01456944 11.57186931 103.22392244 8.45315554 112 6 C113.22589844 5.60361328 113.22589844 5.60361328 114.4765625 5.19921875 C127.62380555 1.129834 141.95088461 0.04722845 155.625 -0.9375 C156.41197266 -1.00727051 157.19894531 -1.07704102 158.00976562 -1.14892578 C161.47863441 -1.34987567 163.51046795 -1.34362917 166.3984375 0.68359375 C169.76930167 5.55901437 170.29492594 9.90517685 170.2746582 15.72436523 C170.27976913 16.48598969 170.28488007 17.24761414 170.29014587 18.03231812 C170.30400591 20.54115738 170.30308788 23.04972083 170.30078125 25.55859375 C170.30467006 27.30827435 170.30900511 29.05795401 170.31376648 30.80763245 C170.32122089 34.4718024 170.32094299 38.13587598 170.31567383 41.80004883 C170.30987919 46.48862257 170.32681374 51.17680127 170.3500185 55.86530972 C170.36477129 59.47791336 170.36562546 63.09042218 170.36250877 66.70305061 C170.36302117 68.43136439 170.36824366 70.15968359 170.37832069 71.88796806 C170.39069839 74.30765113 170.38388595 76.72656883 170.37231445 79.14624023 C170.37995819 79.8555217 170.38760193 80.56480316 170.39547729 81.295578 C170.34693269 85.90302942 169.49221753 89.1150244 167 93 C164.3125 93.875 164.3125 93.875 162 94 C161.67 94.99 161.34 95.98 161 97 C160.34 96.67 159.68 96.34 159 96 C159 96.66 159 97.32 159 98 C158.15743652 98.05945801 158.15743652 98.05945801 157.29785156 98.12011719 C129.94299929 100.12872906 94.59861708 104.40138292 74 125 C69.38613217 125.41356798 67.2029172 124.89333376 63.625 122 C41.78886834 105.84322097 12.42854192 98.64616368 -14.375 98.3359375 C-17.40698909 97.94791509 -18.0897673 97.28296103 -20 95 C-20.825 94.71125 -21.65 94.4225 -22.5 94.125 C-25.81531458 92.63310844 -26.45438013 91.27425779 -28 88 C-28.28385954 85.41890884 -28.41092949 83.08340284 -28.38818359 80.50683594 C-28.39344055 79.76953751 -28.39869751 79.03223907 -28.40411377 78.27259827 C-28.41728144 75.84297282 -28.40858384 73.41400677 -28.3984375 70.984375 C-28.40046004 69.28672155 -28.40337297 67.58906895 -28.40713501 65.89141846 C-28.41155471 62.33394089 -28.405142 58.77668951 -28.39111328 55.21923828 C-28.37407371 50.67890139 -28.38383141 46.13909862 -28.40183067 41.59878159 C-28.41272278 38.09155325 -28.40919652 34.58444939 -28.4014473 31.0772171 C-28.39945754 29.40442083 -28.40186116 27.73161296 -28.40888596 26.05883026 C-28.46362966 9.35042229 -28.46362966 9.35042229 -25 2 C-21.47586157 -0.34942562 -19.50164248 -0.41124304 -15.3125 -0.6875 C-13.54326172 -0.81705078 -13.54326172 -0.81705078 -11.73828125 -0.94921875 C-7.74352144 -1.00348403 -3.93905632 -0.57856799 0 0 Z " fill="#C6EBFE" transform="translate(441,248)"/>
<path d="M0 0 C0.50789063 0.34933594 1.01578125 0.69867188 1.5390625 1.05859375 C2.57160156 1.74115234 2.57160156 1.74115234 3.625 2.4375 C4.63433594 3.11619141 4.63433594 3.11619141 5.6640625 3.80859375 C10.91379454 6.48613267 17.08816536 6.26335007 22.875 6.5625 C23.65875 6.60568359 24.4425 6.64886719 25.25 6.69335938 C27.16650649 6.79853351 29.08323333 6.89967925 31 7 C31.33 6.34 31.66 5.68 32 5 C32 5.66 32 6.32 32 7 C32.81726563 6.83628906 33.63453125 6.67257812 34.4765625 6.50390625 C38.48768176 5.93025394 42.33248121 5.88998396 46.375 5.9375 C47.11105469 5.94201172 47.84710938 5.94652344 48.60546875 5.95117188 C50.40368158 5.96284858 52.20185197 5.98077989 54 6 C54 6.66 54 7.32 54 8 C55.83498047 7.93039062 55.83498047 7.93039062 57.70703125 7.859375 C77.95751526 7.33025534 99.12298409 10.942851 116.53515625 21.86328125 C119.68777564 23.31718338 121.54915225 23.43670778 125 23 C127.54270387 21.85250878 129.88932059 20.66793485 132.3125 19.3125 C140.58996355 14.93310487 148.93217565 12.2346905 158 10 C158.95132813 9.75378906 159.90265625 9.50757813 160.8828125 9.25390625 C169.45497817 7.35334964 178.27258178 7.82717984 187 8 C187.33 7.34 187.66 6.68 188 6 C191.01043311 6 194.01942279 6.03799896 197.02955627 6.07695007 C200.4661703 6.11706619 203.90283495 6.14149588 207.33959961 6.16479492 C209.14238795 6.17982759 210.94514006 6.20025932 212.74780273 6.22631836 C224.10034605 6.38594883 233.70079708 6.29258607 244 1 C245.29581666 20.75052423 245.29581666 20.75052423 240.9375 26.5 C238.9765625 28.44140625 238.9765625 28.44140625 237 30 C236.47148438 30.44214844 235.94296875 30.88429688 235.3984375 31.33984375 C226.73471841 37.33616164 214.00673627 36.26572512 203.9796772 36.15032959 C201.69417234 36.12432022 199.4089053 36.11165127 197.12327576 36.10205078 C191.45075068 36.07560248 185.77845599 36.02716854 180.1060791 35.97924805 C175.2944198 35.93945255 170.48284704 35.90831745 165.67106438 35.88812256 C163.44392248 35.87537222 161.21715208 35.85036791 158.99012756 35.82470703 C147.56566382 35.74143694 137.04412574 36.91253203 126.15625 40.39453125 C123.33532562 41.18663864 120.9055166 41.35433129 118 41 C116.515 40.01 116.515 40.01 115 39 C110.03770251 37.31340306 105.30294231 36.62092116 100.09765625 36.3671875 C99.3750914 36.32562531 98.65252655 36.28406311 97.9080658 36.24124146 C95.62655292 36.11170606 93.34462684 35.99316994 91.0625 35.875 C89.50451659 35.78849037 87.94657315 35.70125762 86.38867188 35.61328125 C82.59285854 35.40049647 78.79663462 35.19756603 75 35 C74.505 35.99 74.505 35.99 74 37 C74 36.34 74 35.68 74 35 C72.10894531 35.10828125 72.10894531 35.10828125 70.1796875 35.21875 C53.82172301 36.1081304 37.39893082 36.83984979 21.0625 35.25 C20.34747314 35.1883667 19.63244629 35.1267334 18.89575195 35.06323242 C13.68924102 34.46556047 10.32580355 32.77483096 6 30 C6 29.34 6 28.68 6 28 C5.34 28 4.68 28 4 28 C0.16265104 22.3170323 -0.66113613 17.97799644 -0.8125 11.1875 C-0.85052734 10.32962891 -0.88855469 9.47175781 -0.92773438 8.58789062 C-1.1595467 2.31909341 -1.1595467 2.31909341 0 0 Z " fill="#0169E3" transform="translate(390,390)"/>
<path d="M0 0 C0.474375 0.598125 0.94875 1.19625 1.4375 1.8125 C4.94147599 4.80369902 8.63208602 5.73708564 13 7 C13.99 7.33 14.98 7.66 16 8 C17.60348584 8.04673183 19.20877332 8.037569 20.8125 8 C30.55176407 7.90369084 40.27586475 8.51197613 50 9 C50.33 8.34 50.66 7.68 51 7 C51 7.66 51 8.32 51 9 C51.91136719 8.95617187 52.82273437 8.91234375 53.76171875 8.8671875 C75.84504943 8.9004205 100.40137763 17.90706479 119.1328125 29.296875 C121.78514846 30.2956626 123.31475619 29.8325072 126 29 C127.73943928 28.14382739 129.44728494 27.2215723 131.125 26.25 C149.38190668 16.09111036 171.91918047 9 193 9 C193.33 8.34 193.66 7.68 194 7 C194 7.66 194 8.32 194 9 C198.76922298 8.90632155 203.5379469 8.80019614 208.30664062 8.68261719 C209.92830859 8.64437642 211.55005996 8.60951497 213.171875 8.578125 C215.50551117 8.53236743 217.83857562 8.47439184 220.171875 8.4140625 C220.89493835 8.40251129 221.61800171 8.39096008 222.36297607 8.37905884 C226.14250239 8.26868606 228.69287819 7.77527211 232 6 C232.99 6.33 233.98 6.66 235 7 C235 6.34 235 5.68 235 5 C237.31 4.34 239.62 3.68 242 3 C242 2.34 242 1.68 242 1 C242.66 1 243.32 1 244 1 C244.33 6.61 244.66 12.22 245 18 C244.34 18 243.68 18 243 18 C242.79375 18.7425 242.5875 19.485 242.375 20.25 C240.61514529 23.76970941 238.56886872 25.50100272 235 27 C231.23269947 27.59709015 227.50413792 27.60487898 223.6953125 27.609375 C222.61619598 27.62591125 221.53707947 27.64244751 220.42526245 27.65948486 C216.99178346 27.70791859 213.55874728 27.72932636 210.125 27.75 C207.79164445 27.77816342 205.45830948 27.80809136 203.125 27.83984375 C197.41674693 27.91367634 191.70861815 27.96534604 186 28 C186.33 30.31 186.66 32.62 187 35 C185.329375 35.05607422 185.329375 35.05607422 183.625 35.11328125 C164.11081792 35.89341752 143.46157496 38.97060778 126.88671875 50.15234375 C124.04824788 51.42759878 122.09499398 51.34678848 119 51 C116.37071947 49.83394663 113.94340608 48.63306271 111.4375 47.25 C93.26851493 37.74253683 74.18923439 35.59988504 54 35 C55.98 34.505 55.98 34.505 58 34 C58.6814823 32.10820797 58.6814823 32.10820797 59 30 C56.52080855 27.52080855 55.78590248 27.74598109 52.37011719 27.72875977 C50.92786774 27.71347984 50.92786774 27.71347984 49.45648193 27.69789124 C48.41381165 27.69575119 47.37114136 27.69361115 46.296875 27.69140625 C44.09765368 27.66623878 41.898435 27.64084087 39.69921875 27.61523438 C36.22543053 27.5865193 32.75168814 27.56250914 29.27783203 27.54370117 C25.92976579 27.52201619 22.58225026 27.48256351 19.234375 27.44140625 C18.19980164 27.44129044 17.16522827 27.44117462 16.0993042 27.4410553 C10.72152237 27.36741561 6.54016735 27.22761796 2 24 C0.11522452 21.31136795 -0.27924721 18.98288165 -0.44921875 15.7421875 C-0.49240234 14.95199219 -0.53558594 14.16179687 -0.58007812 13.34765625 C-0.61552734 12.53167969 -0.65097656 11.71570313 -0.6875 10.875 C-0.73455078 10.05128906 -0.78160156 9.22757812 -0.83007812 8.37890625 C-1.13502139 2.27004278 -1.13502139 2.27004278 0 0 Z " fill="#0178EF" transform="translate(390,363)"/>
<path d="M0 0 C4.37509201 0.32420653 7.9443304 2.33491357 11.734375 4.38671875 C12.37183655 4.72621048 13.0092981 5.06570221 13.66607666 5.41548157 C15.01245608 6.13445887 16.35713392 6.85663058 17.70019531 7.58178711 C19.72544559 8.67425477 21.75667503 9.75486461 23.7890625 10.83398438 C43.04115807 21.11230995 43.04115807 21.11230995 44.97558594 24.9206543 C45 27 45 27 43.37158203 29.07568359 C41.00737858 30.99401298 38.7560461 32.39198292 36.0546875 33.7890625 C31.86608477 36.00098997 27.73404647 38.27797664 23.6328125 40.6484375 C22.56289063 41.26074219 21.49296875 41.87304688 20.390625 42.50390625 C18.18577402 43.76721201 15.9853362 45.03824697 13.7890625 46.31640625 C12.726875 46.92097656 11.6646875 47.52554688 10.5703125 48.1484375 C9.61914551 48.69677246 8.66797852 49.24510742 7.68798828 49.81005859 C4.82833449 51.07599434 3.08680284 51.41108826 0 51 C-2.45854505 48.54145495 -2.25226948 47.86836987 -2.25878906 44.49023438 C-2.26509338 43.55586548 -2.27139771 42.62149658 -2.27789307 41.65881348 C-2.2738446 40.64734253 -2.26979614 39.63587158 -2.265625 38.59375 C-2.26753845 37.55810913 -2.2694519 36.52246826 -2.27142334 35.45544434 C-2.27278597 33.26309975 -2.26908414 31.07074711 -2.26074219 28.87841797 C-2.25004392 25.51381384 -2.26063503 22.14974368 -2.2734375 18.78515625 C-2.27211592 16.65885298 -2.26955356 14.53255005 -2.265625 12.40625 C-2.26967346 11.39477905 -2.27372192 10.38330811 -2.27789307 9.34118652 C-2.27158875 8.40681763 -2.26528442 7.47244873 -2.25878906 6.50976562 C-2.25719788 5.68528931 -2.25560669 4.86081299 -2.25396729 4.01135254 C-2 2 -2 2 0 0 Z " fill="#0279F1" transform="translate(495,282)"/>
<path d="M0 0 C18.82248066 0.24038928 39.37242996 5.77996498 56.1875 14.1875 C61.82850782 14.66282656 65.77264276 13.37341185 70.75 10.9375 C78.08811203 7.5369115 85.31226744 5.10851049 93.1875 3.1875 C93.86047119 3.01379883 94.53344238 2.84009766 95.22680664 2.66113281 C101.07258391 1.23309755 106.74710933 0.7739004 112.75 0.5625 C113.66330078 0.52382813 114.57660156 0.48515625 115.51757812 0.4453125 C117.74069924 0.35219748 119.96383613 0.26637834 122.1875 0.1875 C123.44414978 3.09350261 124.1875 4.98354584 124.1875 8.1875 C122.516875 8.24357422 122.516875 8.24357422 120.8125 8.30078125 C101.29831792 9.08091752 80.64907496 12.15810778 64.07421875 23.33984375 C61.23574788 24.61509878 59.28249398 24.53428848 56.1875 24.1875 C53.55821947 23.02144663 51.13090608 21.82056271 48.625 20.4375 C30.45601493 10.93003683 11.37673439 8.78738504 -8.8125 8.1875 C-7.4925 7.8575 -6.1725 7.5275 -4.8125 7.1875 C-4.1310177 5.29570797 -4.1310177 5.29570797 -3.8125 3.1875 C-4.4725 2.5275 -5.1325 1.8675 -5.8125 1.1875 C-4.16205326 -0.46294674 -2.27061046 0.01624185 0 0 Z " fill="#B5E1FD" transform="translate(452.8125,389.8125)"/>
<path d="M0 0 C22.19289873 -1.37433088 48.86882203 4.69435953 67.484375 16.84765625 C70.8598727 18.39388579 72.45069477 18.03172351 76 17 C78.56547325 15.82263604 81.05650273 14.60282833 83.5625 13.3125 C104.09747188 3.18772903 126.32729756 -0.27207243 149 0 C148.34 0.33 147.68 0.66 147 1 C146.67 1.66 146.34 2.32 146 3 C145.01 2.505 145.01 2.505 144 2 C143.67 2.66 143.34 3.32 143 4 C140.23461914 4.68261719 140.23461914 4.68261719 136.53515625 5.296875 C135.17242703 5.53181577 133.80980068 5.76735376 132.44726562 6.00341797 C131.37279175 6.18538727 131.37279175 6.18538727 130.27661133 6.37103271 C110.28722443 9.79241609 91.10990231 14.59339846 74 26 C69.36476191 25.7062173 65.53181039 23.37434966 61.5 21.25 C47.6975225 14.19777699 33.6604194 9.66322743 18.41796875 7.00390625 C17.46792969 6.83576416 16.51789063 6.66762207 15.5390625 6.49438477 C13.66811217 6.17001196 11.79435542 5.86135159 9.91796875 5.57006836 C3.45720828 4.46144954 3.45720828 4.46144954 0.89453125 1.875 C0.59933594 1.25625 0.30414063 0.6375 0 0 Z " fill="#B8E3FD" transform="translate(440,368)"/>
<path d="M0 0 C-0.66 0.33 -1.32 0.66 -2 1 C-2.33 1.66 -2.66 2.32 -3 3 C-3.66 2.67 -4.32 2.34 -5 2 C-5.33 2.66 -5.66 3.32 -6 4 C-8.22630553 4.57428798 -10.48304397 5.03148435 -12.74609375 5.4375 C-13.4312355 5.56310303 -14.11637726 5.68870605 -14.82228088 5.81811523 C-17.02595354 6.22030834 -19.23156595 6.61042046 -21.4375 7 C-22.8901223 7.26220035 -24.3425984 7.52521201 -25.79492188 7.7890625 C-27.91404835 8.17384864 -30.03327108 8.55795458 -32.15316772 8.93847656 C-37.44995639 9.89038024 -42.7300116 10.90993396 -48 12 C-45.23776722 9.23776722 -42.79293383 9.42143709 -39 9 C-38.7834375 8.21109375 -38.566875 7.4221875 -38.34375 6.609375 C-37 4 -37 4 -34.53125 2.890625 C-22.88403095 0.42909932 -11.88130039 -0.1425756 0 0 Z " fill="#BAE4FD" transform="translate(589,368)"/>
<path d="M0 0 C10.48799497 -0.64948593 20.69492124 1.2918253 31 3 C31.33 4.65 31.66 6.3 32 8 C26.50199637 9.85503412 20.95806956 7.91537124 15.4375 6.8125 C14.28830078 6.60302734 13.13910156 6.39355469 11.95507812 6.17773438 C10.85486328 5.96052734 9.75464844 5.74332031 8.62109375 5.51953125 C7.6148999 5.32464111 6.60870605 5.12975098 5.57202148 4.92895508 C2.57011213 3.84473438 1.62431056 2.69383534 0 0 Z " fill="#B4DFFD" transform="translate(440,368)"/>
<path d="M0 0 C6.02065336 0.01672404 11.84221025 0.34982368 17.8125 1.1328125 C16.29043991 3.76182538 14.96884036 5.97647214 12.8125 8.1328125 C10.84130859 8.35986328 10.84130859 8.35986328 8.4609375 8.328125 C7.61015625 8.32167969 6.759375 8.31523437 5.8828125 8.30859375 C4.54863281 8.28345703 4.54863281 8.28345703 3.1875 8.2578125 C1.84171875 8.24427734 1.84171875 8.24427734 0.46875 8.23046875 C-1.75026586 8.2068622 -3.96875077 8.1739356 -6.1875 8.1328125 C-4.8675 7.8028125 -3.5475 7.4728125 -2.1875 7.1328125 C-1.5060177 5.24102047 -1.5060177 5.24102047 -1.1875 3.1328125 C-1.8475 2.4728125 -2.5075 1.8128125 -3.1875 1.1328125 C-2.1875 0.1328125 -2.1875 0.1328125 0 0 Z " fill="#56AFFF" transform="translate(450.1875,389.8671875)"/>
<path d="M0 0 C1.25664978 2.90600261 2 4.79604584 2 8 C-3.61 8 -9.22 8 -15 8 C-15 6.02 -15 4.04 -15 2 C-16.65 2 -18.3 2 -20 2 C-20 1.67 -20 1.34 -20 1 C-13.31184516 0.37577221 -6.71884955 -0.12920865 0 0 Z " fill="#86C3F8" transform="translate(575,390)"/>
<path d="M0 0 C2.31 0 4.62 0 7 0 C5 1.33333333 3 2.66666667 1 4 C-0.863771 11.78266163 -0.11810391 20.5281314 -0.0625 28.48046875 C-0.05871338 29.73330154 -0.05492676 30.98613434 -0.05102539 32.27693176 C-0.03889819 36.24715212 -0.02047542 40.21731644 0 44.1875 C0.02696366 49.43097946 0.04661533 54.67444353 0.0625 59.91796875 C0.07079834 61.11085007 0.07909668 62.30373138 0.08764648 63.53276062 C0.10504366 69.45832856 -0.08686805 75.14238437 -1 81 C-1.33 81 -1.66 81 -2 81 C-2 54.93 -2 28.86 -2 2 C-1.34 2 -0.68 2 0 2 C0 1.34 0 0.68 0 0 Z " fill="#1BA5FC" transform="translate(392,266)"/>
<path d="M0 0 C0.474375 0.598125 0.94875 1.19625 1.4375 1.8125 C4.94147599 4.80369902 8.63208602 5.73708564 13 7 C13.99 7.33 14.98 7.66 16 8 C18.06145107 8.068991 20.12501401 8.08467727 22.1875 8.0625 C23.27417969 8.05347656 24.36085938 8.04445313 25.48046875 8.03515625 C26.31191406 8.02355469 27.14335937 8.01195312 28 8 C27.67 8.99 27.34 9.98 27 11 C17.67561297 10.72413056 9.69332173 9.42319445 1 6 C1.25680094 13.10054603 1.93387143 18.09755529 6 24 C4.68 24 3.36 24 2 24 C0.40923997 21.16212567 -0.27913549 18.98501164 -0.44921875 15.7421875 C-0.49240234 14.95199219 -0.53558594 14.16179687 -0.58007812 13.34765625 C-0.61552734 12.53167969 -0.65097656 11.71570313 -0.6875 10.875 C-0.73455078 10.05128906 -0.78160156 9.22757812 -0.83007812 8.37890625 C-1.13502139 2.27004278 -1.13502139 2.27004278 0 0 Z " fill="#0D97FC" transform="translate(390,363)"/>
<path d="M0 0 C-0.99 0.495 -0.99 0.495 -2 1 C-2.33 1.66 -2.66 2.32 -3 3 C-3.66 2.67 -4.32 2.34 -5 2 C-5.33 2.66 -5.66 3.32 -6 4 C-8.51171875 4.66796875 -8.51171875 4.66796875 -11.6875 5.1875 C-12.72261719 5.36667969 -13.75773438 5.54585938 -14.82421875 5.73046875 C-18.09875377 6.00838132 -20.79626616 5.67725108 -24 5 C-23.67 4.01 -23.34 3.02 -23 2 C-23.66 1.67 -24.32 1.34 -25 1 C-16.64399592 -0.10102642 -8.41192037 -0.10094304 0 0 Z " fill="#86C7FC" transform="translate(589,368)"/>
<path d="M0 0 C0.66 0 1.32 0 2 0 C2.495 8.415 2.495 8.415 3 17 C2.01 16.67 1.02 16.34 0 16 C-0.02708567 14.39592672 -0.04643483 12.7917215 -0.0625 11.1875 C-0.07410156 10.29417969 -0.08570313 9.40085937 -0.09765625 8.48046875 C0 6 0 6 1 3 C0.55011719 3.33773438 0.10023438 3.67546875 -0.36328125 4.0234375 C-9.4533857 10.3263957 -19.24782355 10.33776471 -30 10 C-29.67 9.34 -29.34 8.68 -29 8 C-26.53783652 7.73863645 -24.15650535 7.57852777 -21.6875 7.5 C-17.32118308 7.35874902 -13.90950794 7.07552824 -10 5 C-9.01 5.33 -8.02 5.66 -7 6 C-7 5.34 -7 4.68 -7 4 C-4.69 3.34 -2.38 2.68 0 2 C0 1.34 0 0.68 0 0 Z " fill="#0589FA" transform="translate(632,364)"/>
<path d="M0 0 C2 2 2 2 2.22705078 5.71533203 C2.22673351 7.31286052 2.21539982 8.91041027 2.1953125 10.5078125 C2.1924826 11.34843231 2.18965271 12.18905212 2.18673706 13.05514526 C2.1755243 15.74524046 2.15041803 18.4350051 2.125 21.125 C2.1149716 22.94660978 2.10584551 24.76822477 2.09765625 26.58984375 C2.07558142 31.06002358 2.04104434 35.52995571 2 40 C1.67 40 1.34 40 1 40 C1 36.7 1 33.4 1 30 C0.34 29.67 -0.32 29.34 -1 29 C-1.02465881 25.03069011 -1.04284023 21.06140966 -1.05493164 17.09204102 C-1.05997057 15.74079614 -1.06680177 14.38955674 -1.07543945 13.03833008 C-1.08752419 11.09979566 -1.09269828 9.161222 -1.09765625 7.22265625 C-1.10289307 6.05484619 -1.10812988 4.88703613 -1.11352539 3.68383789 C-1 1 -1 1 0 0 Z " fill="#D4F2FD" transform="translate(414,281)"/>
<path d="M0 0 C6.43530442 -0.36426251 6.43530442 -0.36426251 8.70996094 1.10302734 C10.62067997 3.91269556 10.35473876 6.1678336 10.328125 9.5390625 C10.32296875 10.84230469 10.3178125 12.14554687 10.3125 13.48828125 C10.3021875 14.16842285 10.291875 14.84856445 10.28125 15.54931641 C10.25042352 17.59686897 10.24030624 19.64364576 10.234375 21.69140625 C10.18054538 28.53449662 9.9281215 35.21872515 9 42 C8.67 42 8.34 42 8 42 C8 29.13 8 16.26 8 3 C5.36 2.34 2.72 1.68 0 1 C0 0.67 0 0.34 0 0 Z " fill="#14A4FE" transform="translate(624,266)"/>
<path d="M0 0 C0 0.33 0 0.66 0 1 C-1.22589844 1.07476562 -2.45179688 1.14953125 -3.71484375 1.2265625 C-17.3982415 2.21768428 -30.23478203 4.96234445 -43.49951172 8.38720703 C-46.31458096 9.07709414 -49.12923187 9.60114542 -52 10 C-49.84041868 7.84041868 -48.8444081 7.49968731 -45.97265625 6.7109375 C-45.18052734 6.49179687 -44.38839844 6.27265625 -43.57226562 6.046875 C-42.74404297 5.82515625 -41.91582031 5.6034375 -41.0625 5.375 C-40.23814453 5.14554687 -39.41378906 4.91609375 -38.56445312 4.6796875 C-32.41059803 3 -32.41059803 3 -29 3 C-29 2.34 -29 1.68 -29 1 C-19.30429046 0.07027443 -9.72657452 -0.11237377 0 0 Z " fill="#0D64E6" transform="translate(585,367)"/>
<path d="M0 0 C0 0.33 0 0.66 0 1 C-0.82242188 1.10957031 -1.64484375 1.21914063 -2.4921875 1.33203125 C-7.94224426 2.10611552 -13.18941038 2.93439403 -18.4375 4.625 C-22.08722738 5.79220178 -25.1305892 6.47187937 -29 6 C-29.99 5.34 -30.98 4.68 -32 4 C-34.38082853 3.39578508 -36.77975094 2.8609677 -39.1875 2.375 C-40.45980469 2.11460937 -41.73210937 1.85421875 -43.04296875 1.5859375 C-44.01878906 1.39257812 -44.99460937 1.19921875 -46 1 C-46 0.67 -46 0.34 -46 0 C-41.01329383 -0.2374622 -37.08209851 -0.22566606 -32.375 1.5 C-25.66005533 3.93968578 -20.69682926 3.08575165 -14.1328125 0.73828125 C-9.11101964 -1.00003166 -5.17641325 -1.10923141 0 0 Z " fill="#0455C7" transform="translate(537,425)"/>
<path d="M0 0 C0 0.66 0 1.32 0 2 C-1.98 2.33 -3.96 2.66 -6 3 C-5.9278125 3.75023437 -5.855625 4.50046875 -5.78125 5.2734375 C-4.80582402 16.03021844 -4.96569444 26.25061004 -6 37 C-6.66 36.67 -7.32 36.34 -8 36 C-8.0247636 31.65836985 -8.04289015 27.3167774 -8.05493164 22.97509766 C-8.05995288 21.49885339 -8.06677116 20.02261408 -8.07543945 18.54638672 C-8.08760189 16.42153702 -8.09325046 14.29675322 -8.09765625 12.171875 C-8.10289307 10.8940918 -8.10812988 9.61630859 -8.11352539 8.29980469 C-7.94739981 3.47108779 -7.94739981 3.47108779 -7 1 C-4.53721199 -0.231394 -2.7204945 -0.07159196 0 0 Z " fill="#57CAFE" transform="translate(623,266)"/>
<path d="M0 0 C3.96 0 7.92 0 12 0 C9 5 9 5 7 7 C4.6171875 7.1953125 4.6171875 7.1953125 1.875 7.125 C0.50988281 7.09792969 0.50988281 7.09792969 -0.8828125 7.0703125 C-1.58148438 7.04710937 -2.28015625 7.02390625 -3 7 C-2.35546875 6.71382813 -1.7109375 6.42765625 -1.046875 6.1328125 C1.19884128 5.18581338 1.19884128 5.18581338 1.75 2.875 C1.8325 2.25625 1.915 1.6375 2 1 C1.34 0.67 0.68 0.34 0 0 Z " fill="#7AC0F8" transform="translate(456,391)"/>
<path d="M0 0 C0.66 0.66 1.32 1.32 2 2 C1.67 2.99 1.34 3.98 1 5 C0.34 4.67 -0.32 4.34 -1 4 C-1 4.66 -1 5.32 -1 6 C-3.97 6 -6.94 6 -10 6 C-9.625 3.5625 -9.625 3.5625 -9 1 C-5.98675805 -0.50662097 -3.31713623 -0.17770373 0 0 Z " fill="#B8E5FE" transform="translate(601,340)"/>
<path d="M0 0 C0 0.99 0 1.98 0 3 C-0.33 3.33 -0.66 3.66 -1 4 C-1.15764405 5.77869726 -1.25100677 7.56318476 -1.31640625 9.34765625 C-1.35830078 10.42724609 -1.40019531 11.50683594 -1.44335938 12.61914062 C-1.48267578 13.75544922 -1.52199219 14.89175781 -1.5625 16.0625 C-1.60568359 17.20267578 -1.64886719 18.34285156 -1.69335938 19.51757812 C-1.79982839 22.34492195 -1.90184207 25.17235738 -2 28 C-2.12375 27.360625 -2.2475 26.72125 -2.375 26.0625 C-2.58125 25.381875 -2.7875 24.70125 -3 24 C-3.66 23.67 -4.32 23.34 -5 23 C-5.63166196 7.86350792 -5.63166196 7.86350792 -2 1 C-1.34 0.67 -0.68 0.34 0 0 Z " fill="#DFF4FD" transform="translate(418,249)"/>
<path d="M0 0 C1.74965358 -0.05429959 3.49979787 -0.09292823 5.25 -0.125 C6.22453125 -0.14820313 7.1990625 -0.17140625 8.203125 -0.1953125 C11.0196498 0.00137219 12.60949036 0.55431084 15 2 C14.67 3.32 14.34 4.64 14 6 C12.22631108 5.77113691 10.45598923 5.5160762 8.6875 5.25 C7.20830078 5.04117187 7.20830078 5.04117187 5.69921875 4.828125 C2.53202216 3.85642358 1.66599922 2.79751404 0 0 Z " fill="#54BDFD" transform="translate(440,368)"/>
<path d="M0 0 C2.64 0 5.28 0 8 0 C9.25664978 2.90600261 10 4.79604584 10 8 C7.69 8 5.38 8 3 8 C2 5 2 5 3 2 C2.01 1.34 1.02 0.68 0 0 Z " fill="#609FFB" transform="translate(567,390)"/>
<path d="M0 0 C9.07448253 -0.11157151 17.96278689 0.05757182 27 1 C27 1.66 27 2.32 27 3 C28.32 3.33 29.64 3.66 31 4 C25.30719179 4.26478178 19.99365068 3.4290756 14.37890625 2.51171875 C9.60253804 1.78836125 4.81517473 1.36668665 0 1 C0 0.67 0 0.34 0 0 Z " fill="#0A6AE9" transform="translate(440,367)"/>
<path d="M0 0 C2.16874252 0.50603992 3.99967627 0.99983813 6 2 C6 12.23 6 22.46 6 33 C5.67 33 5.34 33 5 33 C4.98018066 32.20303711 4.96036133 31.40607422 4.93994141 30.58496094 C4.84466752 26.97297528 4.73499693 23.36156601 4.625 19.75 C4.5940625 18.49574219 4.563125 17.24148438 4.53125 15.94921875 C4.49257813 14.74394531 4.45390625 13.53867187 4.4140625 12.296875 C4.3826416 11.18666992 4.3512207 10.07646484 4.31884766 8.93261719 C3.88092065 4.90476174 2.84304014 2.84304014 0 0 Z " fill="#31B2FE" transform="translate(402,266)"/>
<path d="M0 0 C4.95 0 9.9 0 15 0 C14.01 0.495 14.01 0.495 13 1 C12.67 1.66 12.34 2.32 12 3 C11.34 2.67 10.68 2.34 10 2 C9.67 2.66 9.34 3.32 9 4 C5.9375 4.625 5.9375 4.625 3 5 C2.67 4.01 2.34 3.02 2 2 C1.34 1.34 0.68 0.68 0 0 Z " fill="#66BBFE" transform="translate(574,368)"/>
<path d="M0 0 C0.33 0.66 0.66 1.32 1 2 C2.5778125 1.9690625 2.5778125 1.9690625 4.1875 1.9375 C7.32704904 1.98896802 9.96883396 2.26517187 13 3 C13 3.33 13 3.66 13 4 C6.07 4 -0.86 4 -8 4 C-8 3.34 -8 2.68 -8 2 C-5.36 2 -2.72 2 0 2 C0 1.34 0 0.68 0 0 Z " fill="#037FF9" transform="translate(421,344)"/>
<path d="M0 0 C2.31 0 4.62 0 7 0 C5 1.33333333 3 2.66666667 1 4 C0.45321384 6.58935509 0.45321384 6.58935509 0.375 9.5 C0.07988166 14.84023669 0.07988166 14.84023669 -1 17 C-2 16 -2 16 -2.09765625 12.83984375 C-2.08025391 10.90818359 -2.08025391 10.90818359 -2.0625 8.9375 C-2.05347656 7.64714844 -2.04445313 6.35679687 -2.03515625 5.02734375 C-2.02355469 4.02832031 -2.01195312 3.02929688 -2 2 C-1.34 2 -0.68 2 0 2 C0 1.34 0 0.68 0 0 Z " fill="#43B7FE" transform="translate(392,266)"/>
<path d="M0 0 C6.48636408 -0.36715268 6.48636408 -0.36715268 8.72583008 1.23364258 C10.36662991 3.50825205 10.278958 4.67593259 10.07421875 7.44921875 C9.99204102 8.72055664 9.99204102 8.72055664 9.90820312 10.01757812 C9.83537109 10.89865234 9.76253906 11.77972656 9.6875 12.6875 C9.62626953 13.58017578 9.56503906 14.47285156 9.50195312 15.39257812 C9.34874168 17.59646586 9.18091866 19.79824206 9 22 C8.67 22 8.34 22 8 22 C8 15.73 8 9.46 8 3 C5.36 2.34 2.72 1.68 0 1 C0 0.67 0 0.34 0 0 Z " fill="#36B5FE" transform="translate(624,266)"/>
<path d="M0 0 C0.66 0.33 1.32 0.66 2 1 C2.14715692 8.3905476 1.70776992 15.64424835 1 23 C0.34 22.67 -0.32 22.34 -1 22 C-1.0270817 19.27076612 -1.04687847 16.54180363 -1.0625 13.8125 C-1.07087891 13.04357422 -1.07925781 12.27464844 -1.08789062 11.48242188 C-1.10491934 7.51473211 -0.98604115 3.87428766 0 0 Z " fill="#35B5FE" transform="translate(616,280)"/>
<path d="M0 0 C0.66 0.66 1.32 1.32 2 2 C-2.26829268 7.79268293 -2.26829268 7.79268293 -6 9 C-9.25 9.125 -9.25 9.125 -12 9 C-10 7 -10 7 -7.125 6.1875 C-3.46272005 4.79583362 -2.18050611 3.18689355 0 0 Z " fill="#0A86F9" transform="translate(631,381)"/>
<path d="M0 0 C0.33 0.66 0.66 1.32 1 2 C1.99 1.95875 2.98 1.9175 4 1.875 C8.23835866 1.8576652 11.93193985 2.85808838 16 4 C16 4.33 16 4.66 16 5 C13.20743781 4.88638398 10.41655882 4.7596411 7.625 4.625 C6.8309375 4.5940625 6.036875 4.563125 5.21875 4.53125 C-0.7734375 4.2265625 -0.7734375 4.2265625 -3 2 C-2.01 2 -1.02 2 0 2 C0 1.34 0 0.68 0 0 Z " fill="#0967EA" transform="translate(440,370)"/>
<path d="M0 0 C1.32 0.33 2.64 0.66 4 1 C3.67 2.98 3.34 4.96 3 7 C0.69 6.67 -1.62 6.34 -4 6 C-3.525625 5.566875 -3.05125 5.13375 -2.5625 4.6875 C-0.76313043 2.97690387 -0.76313043 2.97690387 0 0 Z " fill="#76BCF8" transform="translate(567,391)"/>
<path d="M0 0 C-0.66 1.32 -1.32 2.64 -2 4 C-7.53846154 4.36923077 -7.53846154 4.36923077 -9.875 2.5 C-10.24625 2.005 -10.6175 1.51 -11 1 C-7.32589215 -0.17571451 -3.83070817 -0.07366746 0 0 Z " fill="#ABE5FF" transform="translate(432,342)"/>
<path d="M0 0 C0.66 0 1.32 0 2 0 C2.05410687 1.77049689 2.09284119 3.54146849 2.125 5.3125 C2.14820313 6.29863281 2.17140625 7.28476562 2.1953125 8.30078125 C2 11 2 11 0 14 C0 10.37 0 6.74 0 3 C-0.66 2.67 -1.32 2.34 -2 2 C-1.34 1.34 -0.68 0.68 0 0 Z " fill="#0574EE" transform="translate(632,391)"/>
<path d="M0 0 C0.66 0.33 1.32 0.66 2 1 C-4.03076923 5.92307692 -4.03076923 5.92307692 -8.9375 6.3125 C-9.948125 6.209375 -10.95875 6.10625 -12 6 C-10.75 4.4375 -10.75 4.4375 -9 3 C-6.8125 3.3125 -6.8125 3.3125 -5 4 C-5 3.34 -5 2.68 -5 2 C-2.625 0.9375 -2.625 0.9375 0 0 Z " fill="#0B9CFE" transform="translate(630,366)"/>
<path d="M0 0 C2.31 0.33 4.62 0.66 7 1 C6.67 2.32 6.34 3.64 6 5 C4.35 4.67 2.7 4.34 1 4 C0.67 2.68 0.34 1.36 0 0 Z " fill="#83C7FC" transform="translate(448,369)"/>
<path d="M0 0 C2.31 0 4.62 0 7 0 C7 1.32 7 2.64 7 4 C5.02 4 3.04 4 1 4 C1.33 3.01 1.66 2.02 2 1 C1.34 0.67 0.68 0.34 0 0 Z " fill="#9DD1FB" transform="translate(564,369)"/>
<path d="M0 0 C0.99 0 1.98 0 3 0 C1.84826645 2.46800047 0.95216435 4.04783565 -1 6 C-3.125 5.625 -3.125 5.625 -5 5 C-4.34 5 -3.68 5 -3 5 C-2.5359375 4.0409375 -2.5359375 4.0409375 -2.0625 3.0625 C-1 1 -1 1 0 0 Z " fill="#90CCFB" transform="translate(464,392)"/>
<path d="M0 0 C3.63 0 7.26 0 11 0 C11 0.33 11 0.66 11 1 C9.35 1 7.7 1 6 1 C5.67 1.99 5.34 2.98 5 4 C3.02 3.34 1.04 2.68 -1 2 C-0.67 1.34 -0.34 0.68 0 0 Z " fill="#4BB4FA" transform="translate(448,390)"/>
<path d="M0 0 C1.32 1.32 2.64 2.64 4 4 C3.34 4.66 2.68 5.32 2 6 C1.35232207 8.57061311 1.35232207 8.57061311 1 11 C0.67 11 0.34 11 0 11 C-0.19491452 9.54263913 -0.38069358 8.08405407 -0.5625 6.625 C-0.66691406 5.81289063 -0.77132813 5.00078125 -0.87890625 4.1640625 C-1 2 -1 2 0 0 Z " fill="#0D8CF5" transform="translate(390,390)"/>
<path d="M0 0 C0.66 0 1.32 0 2 0 C2.33 3.3 2.66 6.6 3 10 C2.67 9.34 2.34 8.68 2 8 C1.34 7.67 0.68 7.34 0 7 C0 4.69 0 2.38 0 0 Z " fill="#B7F6FD" transform="translate(413,273)"/>
<path d="M0 0 C3.63 0 7.26 0 11 0 C7.7868736 2.14208427 5.78934603 2.59687808 2 3 C1.34 2.67 0.68 2.34 0 2 C0 1.34 0 0.68 0 0 Z " fill="#0B67E5" transform="translate(556,368)"/>
<path d="M0 0 C-0.33 0.66 -0.66 1.32 -1 2 C-3.64 2 -6.28 2 -9 2 C-9 1.34 -9 0.68 -9 0 C-5.52176885 -1.15941038 -3.54104422 -0.70820884 0 0 Z " fill="#E0F4FE" transform="translate(439,248)"/>
<path d="M0 0 C1 3 1 3 1 5 C-0.98 5 -2.96 5 -5 5 C-4.67 3.68 -4.34 2.36 -4 1 C-2.68 0.67 -1.36 0.34 0 0 Z " fill="#47B0FF" transform="translate(576,393)"/>
<path d="M0 0 C2.31 0 4.62 0 7 0 C6.67 1.32 6.34 2.64 6 4 C4.68 4 3.36 4 2 4 C2 3.01 2 2.02 2 1 C1.34 0.67 0.68 0.34 0 0 Z " fill="#A2D5FD" transform="translate(453,369)"/>
<path d="M0 0 C1.32 0.66 2.64 1.32 4 2 C3.67 2.99 3.34 3.98 3 5 C1.35 4.67 -0.3 4.34 -2 4 C-1.34 2.68 -0.68 1.36 0 0 Z " fill="#A9CEFF" transform="translate(599,340)"/>
<path d="M0 0 C0.99 0.33 1.98 0.66 3 1 C2.67 4.96 2.34 8.92 2 13 C1.67 13 1.34 13 1 13 C0.67 8.71 0.34 4.42 0 0 Z " fill="#D4F1FE" transform="translate(608,254)"/>
<path d="M0 0 C1.32 0.33 2.64 0.66 4 1 C3.67 2.65 3.34 4.3 3 6 C2.01 5.67 1.02 5.34 0 5 C0 3.33333333 0 1.66666667 0 0 Z " fill="#6BB3FF" transform="translate(454,391)"/>
<path d="M0 0 C1.53202706 0.25195908 3.05257128 0.57596777 4.5625 0.9375 C5.38878906 1.13214844 6.21507812 1.32679688 7.06640625 1.52734375 C8.02353516 1.76130859 8.02353516 1.76130859 9 2 C9 2.33 9 2.66 9 3 C2.9453125 3.1953125 2.9453125 3.1953125 1 3 C0.34 2.34 -0.32 1.68 -1 1 C-0.67 0.67 -0.34 0.34 0 0 Z " fill="#078DFB" transform="translate(397,387)"/>
<path d="M0 0 C0.33 0.99 0.66 1.98 1 3 C0.01 3.99 -0.98 4.98 -2 6 C-2.99 5.67 -3.98 5.34 -5 5 C-4 2 -4 2 -1.9375 0.8125 C-1.298125 0.544375 -0.65875 0.27625 0 0 Z " fill="#077FFE" transform="translate(628,361)"/>
<path d="M0 0 C0.33 0.66 0.66 1.32 1 2 C0.34 1.67 -0.32 1.34 -1 1 C-0.67 0.67 -0.34 0.34 0 0 Z " fill="#000000" transform="translate(665,577)"/>
<path d="M0 0 C0.33 0.66 0.66 1.32 1 2 C0.34 1.67 -0.32 1.34 -1 1 C-0.67 0.67 -0.34 0.34 0 0 Z " fill="#7FD4FF" transform="translate(608,342)"/>
<path d="M0 0 C0.99 0.495 0.99 0.495 2 1 C1.01 1.495 1.01 1.495 0 2 C0 1.34 0 0.68 0 0 Z " fill="#000000" transform="translate(664,98)"/>
<path d="" fill="#000000" transform="translate(0,0)"/>
<path d="M0 0 C2 1 2 1 2 1 Z " fill="#000000" transform="translate(56,681)"/>
<path d="M0 0 C2 1 2 1 2 1 Z " fill="#7F7F7F" transform="translate(664,679)"/>
<path d="" fill="#000000" transform="translate(0,0)"/>
<path d="M0 0 C2 1 2 1 2 1 Z " fill="#7F7F7F" transform="translate(56,665)"/>
<path d="M0 0 C2 1 2 1 2 1 Z " fill="#000000" transform="translate(632,659)"/>
<path d="" fill="#000000" transform="translate(0,0)"/>
<path d="M0 0 C2 1 2 1 2 1 Z " fill="#000000" transform="translate(632,654)"/>
<path d="" fill="#000000" transform="translate(0,0)"/>
<path d="" fill="#000000" transform="translate(0,0)"/>
<path d="" fill="#000000" transform="translate(0,0)"/>
<path d="" fill="#404040" transform="translate(0,0)"/>
<path d="M0 0 C2 1 2 1 2 1 Z " fill="#000000" transform="translate(56,548)"/>
<path d="" fill="#000000" transform="translate(0,0)"/>
<path d="" fill="#000000" transform="translate(0,0)"/>
<path d="M0 0 C2 1 2 1 2 1 Z " fill="#000000" transform="translate(55,478)"/>
<path d="" fill="#000000" transform="translate(0,0)"/>
<path d="" fill="#000000" transform="translate(0,0)"/>
<path d="M0 0 C2 1 2 1 2 1 Z " fill="#0000FF" transform="translate(565,426)"/>
<path d="M0 0 C2 1 2 1 2 1 Z " fill="#0000FF" transform="translate(424,395)"/>
<path d="M0 0 C2 1 2 1 2 1 Z " fill="#2AD4FF" transform="translate(392,363)"/>
<path d="M0 0 C2 1 2 1 2 1 Z " fill="#000000" transform="translate(56,345)"/>
<path d="M0 0 C2 1 2 1 2 1 Z " fill="#FFFFFF" transform="translate(604,343)"/>
<path d="M0 0 C2 1 2 1 2 1 Z " fill="#7F7F7F" transform="translate(56,340)"/>
<path d="M0 0 C2 1 2 1 2 1 Z " fill="#000000" transform="translate(56,329)"/>
<path d="" fill="#000000" transform="translate(0,0)"/>
<path d="" fill="#000000" transform="translate(0,0)"/>
<path d="M0 0 C2 1 2 1 2 1 Z " fill="#FFFFFF" transform="translate(664,210)"/>
<path d="" fill="#000000" transform="translate(0,0)"/>
<path d="M0 0 C2 1 2 1 2 1 Z " fill="#7FFFFF" transform="translate(664,162)"/>
<path d="M0 0 C2 1 2 1 2 1 Z " fill="#000000" transform="translate(664,135)"/>
<path d="M0 0 C2 1 2 1 2 1 Z " fill="#000000" transform="translate(664,114)"/>
<path d="" fill="#000000" transform="translate(0,0)"/>
<path d="M0 0 C2 1 2 1 2 1 Z " fill="#7F7F7F" transform="translate(664,66)"/>
<path d="" fill="#000000" transform="translate(0,0)"/>
<path d="M0 0 C2 1 2 1 2 1 Z " fill="#000000" transform="translate(726,18)"/>
<path d="" fill="#000000" transform="translate(0,0)"/>
<path d="" fill="#000000" transform="translate(0,0)"/>
<path d="" fill="#000000" transform="translate(0,0)"/>
<path d="" fill="#000000" transform="translate(0,0)"/>
<path d="" fill="#000000" transform="translate(0,0)"/>
<path d="" fill="#FFFFFF" transform="translate(0,0)"/>
<path d="" fill="#000000" transform="translate(0,0)"/>
<path d="" fill="#000000" transform="translate(0,0)"/>
<path d="" fill="#000000" transform="translate(0,0)"/>
<path d="" fill="#FFFFFF" transform="translate(0,0)"/>
<path d="" fill="#000000" transform="translate(0,0)"/>
<path d="" fill="#FFFFFF" transform="translate(0,0)"/>
<path d="" fill="#000000" transform="translate(0,0)"/>
<path d="" fill="#000000" transform="translate(0,0)"/>
<path d="" fill="#000000" transform="translate(0,0)"/>
<path d="" fill="#FFFFFF" transform="translate(0,0)"/>
<path d="" fill="#808080" transform="translate(0,0)"/>
<path d="" fill="#000000" transform="translate(0,0)"/>
<path d="" fill="#000000" transform="translate(0,0)"/>
<path d="" fill="#000000" transform="translate(0,0)"/>
<path d="" fill="#000000" transform="translate(0,0)"/>
<path d="" fill="#000000" transform="translate(0,0)"/>
<path d="" fill="#000000" transform="translate(0,0)"/>
<path d="" fill="#000000" transform="translate(0,0)"/>
<path d="" fill="#000000" transform="translate(0,0)"/>
<path d="" fill="#808080" transform="translate(0,0)"/>
<path d="" fill="#000000" transform="translate(0,0)"/>
<path d="" fill="#000000" transform="translate(0,0)"/>
<path d="" fill="#000000" transform="translate(0,0)"/>
<path d="" fill="#000000" transform="translate(0,0)"/>
<path d="" fill="#000000" transform="translate(0,0)"/>
<path d="" fill="#FFFFFF" transform="translate(0,0)"/>
<path d="" fill="#000000" transform="translate(0,0)"/>
<path d="" fill="#000000" transform="translate(0,0)"/>
<path d="" fill="#000000" transform="translate(0,0)"/>
<path d="" fill="#000000" transform="translate(0,0)"/>
<path d="" fill="#000000" transform="translate(0,0)"/>
<path d="" fill="#000000" transform="translate(0,0)"/>
<path d="" fill="#000000" transform="translate(0,0)"/>
<path d="" fill="#000000" transform="translate(0,0)"/>
<path d="" fill="#000000" transform="translate(0,0)"/>
<path d="" fill="#000000" transform="translate(0,0)"/>
<path d="" fill="#000000" transform="translate(0,0)"/>
<path d="" fill="#FFFFFF" transform="translate(0,0)"/>
<path d="" fill="#000000" transform="translate(0,0)"/>
<path d="" fill="#000000" transform="translate(0,0)"/>
<path d="" fill="#000000" transform="translate(0,0)"/>
<path d="" fill="#FFFFFF" transform="translate(0,0)"/>
<path d="" fill="#FFFFFF" transform="translate(0,0)"/>
<path d="" fill="#000000" transform="translate(0,0)"/>
<path d="" fill="#000000" transform="translate(0,0)"/>
<path d="" fill="#000000" transform="translate(0,0)"/>
<path d="" fill="#808080" transform="translate(0,0)"/>
<path d="" fill="#000000" transform="translate(0,0)"/>
<path d="" fill="#000000" transform="translate(0,0)"/>
<path d="" fill="#000000" transform="translate(0,0)"/>
<path d="" fill="#000000" transform="translate(0,0)"/>
<path d="" fill="#000000" transform="translate(0,0)"/>
<path d="" fill="#000000" transform="translate(0,0)"/>
<path d="" fill="#000000" transform="translate(0,0)"/>
<path d="" fill="#FFFFFF" transform="translate(0,0)"/>
<path d="" fill="#FFFFFF" transform="translate(0,0)"/>
<path d="" fill="#000000" transform="translate(0,0)"/>
<path d="" fill="#000000" transform="translate(0,0)"/>
<path d="" fill="#000000" transform="translate(0,0)"/>
<path d="" fill="#000000" transform="translate(0,0)"/>
<path d="" fill="#000000" transform="translate(0,0)"/>
<path d="" fill="#000000" transform="translate(0,0)"/>
<path d="" fill="#000000" transform="translate(0,0)"/>
<path d="" fill="#000000" transform="translate(0,0)"/>
<path d="" fill="#000000" transform="translate(0,0)"/>
<path d="" fill="#000000" transform="translate(0,0)"/>
<path d="" fill="#000000" transform="translate(0,0)"/>
<path d="" fill="#000000" transform="translate(0,0)"/>
<path d="" fill="#000000" transform="translate(0,0)"/>
<path d="" fill="#000000" transform="translate(0,0)"/>
<path d="" fill="#000000" transform="translate(0,0)"/>
<path d="" fill="#000000" transform="translate(0,0)"/>
<path d="" fill="#000000" transform="translate(0,0)"/>
<path d="" fill="#000000" transform="translate(0,0)"/>
<path d="" fill="#000000" transform="translate(0,0)"/>
<path d="" fill="#000000" transform="translate(0,0)"/>
<path d="" fill="#000000" transform="translate(0,0)"/>
<path d="" fill="#000000" transform="translate(0,0)"/>
<path d="" fill="#000000" transform="translate(0,0)"/>
<path d="" fill="#FFFFFF" transform="translate(0,0)"/>
<path d="" fill="#000000" transform="translate(0,0)"/>
<path d="" fill="#000000" transform="translate(0,0)"/>
<path d="" fill="#000000" transform="translate(0,0)"/>
<path d="" fill="#FFFFFF" transform="translate(0,0)"/>
<path d="" fill="#000000" transform="translate(0,0)"/>
<path d="" fill="#000000" transform="translate(0,0)"/>
<path d="" fill="#000000" transform="translate(0,0)"/>
<path d="" fill="#000000" transform="translate(0,0)"/>
<path d="" fill="#000000" transform="translate(0,0)"/>
<path d="" fill="#808080" transform="translate(0,0)"/>
<path d="" fill="#000000" transform="translate(0,0)"/>
<path d="" fill="#000000" transform="translate(0,0)"/>
<path d="" fill="#000000" transform="translate(0,0)"/>
<path d="" fill="#000000" transform="translate(0,0)"/>
<path d="" fill="#FFFFFF" transform="translate(0,0)"/>
<path d="" fill="#000000" transform="translate(0,0)"/>
<path d="" fill="#FFFFFF" transform="translate(0,0)"/>
<path d="" fill="#FFFFFF" transform="translate(0,0)"/>
<path d="" fill="#000000" transform="translate(0,0)"/>
<path d="" fill="#FFFFFF" transform="translate(0,0)"/>
<path d="" fill="#000000" transform="translate(0,0)"/>
<path d="" fill="#000000" transform="translate(0,0)"/>
<path d="" fill="#000000" transform="translate(0,0)"/>
<path d="" fill="#000000" transform="translate(0,0)"/>
<path d="" fill="#808080" transform="translate(0,0)"/>
<path d="" fill="#000000" transform="translate(0,0)"/>
<path d="" fill="#FFFFFF" transform="translate(0,0)"/>
<path d="" fill="#000000" transform="translate(0,0)"/>
<path d="" fill="#000000" transform="translate(0,0)"/>
<path d="" fill="#000000" transform="translate(0,0)"/>
<path d="" fill="#000000" transform="translate(0,0)"/>
<path d="" fill="#FFFFFF" transform="translate(0,0)"/>
<path d="" fill="#000000" transform="translate(0,0)"/>
<path d="" fill="#000000" transform="translate(0,0)"/>
<path d="" fill="#000000" transform="translate(0,0)"/>
<path d="" fill="#000000" transform="translate(0,0)"/>
<path d="" fill="#FFFFFF" transform="translate(0,0)"/>
<path d="" fill="#000000" transform="translate(0,0)"/>
<path d="" fill="#FFFFFF" transform="translate(0,0)"/>
<path d="" fill="#000000" transform="translate(0,0)"/>
<path d="" fill="#000000" transform="translate(0,0)"/>
<path d="" fill="#000000" transform="translate(0,0)"/>
<path d="" fill="#000000" transform="translate(0,0)"/>
<path d="" fill="#000000" transform="translate(0,0)"/>
<path d="" fill="#000000" transform="translate(0,0)"/>
<path d="" fill="#FFFFFF" transform="translate(0,0)"/>
<path d="" fill="#000000" transform="translate(0,0)"/>
<path d="" fill="#000000" transform="translate(0,0)"/>
<path d="" fill="#000000" transform="translate(0,0)"/>
<path d="" fill="#000000" transform="translate(0,0)"/>
<path d="" fill="#000000" transform="translate(0,0)"/>
<path d="" fill="#000000" transform="translate(0,0)"/>
<path d="" fill="#FFFFFF" transform="translate(0,0)"/>
<path d="" fill="#000000" transform="translate(0,0)"/>
<path d="" fill="#000000" transform="translate(0,0)"/>
<path d="" fill="#000000" transform="translate(0,0)"/>
<path d="" fill="#000000" transform="translate(0,0)"/>
<path d="" fill="#000000" transform="translate(0,0)"/>
<path d="" fill="#000000" transform="translate(0,0)"/>
<path d="" fill="#FFFFFF" transform="translate(0,0)"/>
<path d="" fill="#000000" transform="translate(0,0)"/>
<path d="" fill="#000000" transform="translate(0,0)"/>
<path d="" fill="#000000" transform="translate(0,0)"/>
<path d="" fill="#000000" transform="translate(0,0)"/>
<path d="" fill="#000000" transform="translate(0,0)"/>
<path d="" fill="#000000" transform="translate(0,0)"/>
<path d="" fill="#000000" transform="translate(0,0)"/>
<path d="" fill="#000000" transform="translate(0,0)"/>
<path d="" fill="#000000" transform="translate(0,0)"/>
<path d="" fill="#000000" transform="translate(0,0)"/>
<path d="" fill="#000000" transform="translate(0,0)"/>
<path d="" fill="#000000" transform="translate(0,0)"/>
<path d="" fill="#000000" transform="translate(0,0)"/>
<path d="" fill="#000000" transform="translate(0,0)"/>
<path d="" fill="#000000" transform="translate(0,0)"/>
<path d="" fill="#000000" transform="translate(0,0)"/>
<path d="" fill="#000000" transform="translate(0,0)"/>
<path d="" fill="#FFFFFF" transform="translate(0,0)"/>
<path d="" fill="#000000" transform="translate(0,0)"/>
<path d="" fill="#000000" transform="translate(0,0)"/>
<path d="" fill="#000000" transform="translate(0,0)"/>
<path d="" fill="#000000" transform="translate(0,0)"/>
<path d="" fill="#000000" transform="translate(0,0)"/>
<path d="" fill="#FFFFFF" transform="translate(0,0)"/>
<path d="" fill="#000000" transform="translate(0,0)"/>
<path d="" fill="#000000" transform="translate(0,0)"/>
<path d="" fill="#000000" transform="translate(0,0)"/>
<path d="" fill="#000000" transform="translate(0,0)"/>
<path d="" fill="#000000" transform="translate(0,0)"/>
<path d="" fill="#000000" transform="translate(0,0)"/>
<path d="" fill="#000000" transform="translate(0,0)"/>
<path d="" fill="#000000" transform="translate(0,0)"/>
<path d="" fill="#FFFFFF" transform="translate(0,0)"/>
<path d="" fill="#000000" transform="translate(0,0)"/>
<path d="" fill="#000000" transform="translate(0,0)"/>
<path d="" fill="#000000" transform="translate(0,0)"/>
<path d="" fill="#000000" transform="translate(0,0)"/>
<path d="" fill="#000000" transform="translate(0,0)"/>
<path d="" fill="#000000" transform="translate(0,0)"/>
<path d="" fill="#000000" transform="translate(0,0)"/>
<path d="" fill="#000000" transform="translate(0,0)"/>
<path d="" fill="#FFFFFF" transform="translate(0,0)"/>
<path d="" fill="#000000" transform="translate(0,0)"/>
<path d="" fill="#000000" transform="translate(0,0)"/>
<path d="" fill="#000000" transform="translate(0,0)"/>
<path d="" fill="#000000" transform="translate(0,0)"/>
<path d="" fill="#FFFFFF" transform="translate(0,0)"/>
<path d="" fill="#000000" transform="translate(0,0)"/>
<path d="" fill="#000000" transform="translate(0,0)"/>
<path d="" fill="#000000" transform="translate(0,0)"/>
<path d="" fill="#000000" transform="translate(0,0)"/>
<path d="" fill="#000000" transform="translate(0,0)"/>
<path d="" fill="#000000" transform="translate(0,0)"/>
<path d="" fill="#000000" transform="translate(0,0)"/>
<path d="" fill="#000000" transform="translate(0,0)"/>
<path d="" fill="#000000" transform="translate(0,0)"/>
<path d="" fill="#000000" transform="translate(0,0)"/>
<path d="" fill="#000000" transform="translate(0,0)"/>
<path d="" fill="#000000" transform="translate(0,0)"/>
<path d="" fill="#000000" transform="translate(0,0)"/>
<path d="" fill="#000000" transform="translate(0,0)"/>
<path d="" fill="#000000" transform="translate(0,0)"/>
<path d="" fill="#000000" transform="translate(0,0)"/>
<path d="" fill="#000000" transform="translate(0,0)"/>
<path d="" fill="#000000" transform="translate(0,0)"/>
<path d="" fill="#FFFFFF" transform="translate(0,0)"/>
<path d="" fill="#000000" transform="translate(0,0)"/>
<path d="" fill="#000000" transform="translate(0,0)"/>
<path d="" fill="#808080" transform="translate(0,0)"/>
<path d="" fill="#000000" transform="translate(0,0)"/>
<path d="" fill="#000000" transform="translate(0,0)"/>
<path d="" fill="#000000" transform="translate(0,0)"/>
<path d="" fill="#000000" transform="translate(0,0)"/>
<path d="" fill="#000000" transform="translate(0,0)"/>
<path d="" fill="#000000" transform="translate(0,0)"/>
<path d="" fill="#FFFFFF" transform="translate(0,0)"/>
<path d="" fill="#000000" transform="translate(0,0)"/>
<path d="" fill="#000000" transform="translate(0,0)"/>
<path d="" fill="#000000" transform="translate(0,0)"/>
<path d="" fill="#000000" transform="translate(0,0)"/>
<path d="" fill="#000000" transform="translate(0,0)"/>
<path d="" fill="#000000" transform="translate(0,0)"/>
<path d="" fill="#FFFFFF" transform="translate(0,0)"/>
<path d="" fill="#000000" transform="translate(0,0)"/>
<path d="" fill="#000000" transform="translate(0,0)"/>
<path d="" fill="#000000" transform="translate(0,0)"/>
<path d="" fill="#FFFFFF" transform="translate(0,0)"/>
<path d="" fill="#000000" transform="translate(0,0)"/>
<path d="" fill="#808080" transform="translate(0,0)"/>
<path d="" fill="#000000" transform="translate(0,0)"/>
<path d="" fill="#000000" transform="translate(0,0)"/>
<path d="" fill="#000000" transform="translate(0,0)"/>
<path d="" fill="#000000" transform="translate(0,0)"/>
<path d="" fill="#000000" transform="translate(0,0)"/>
<path d="" fill="#000000" transform="translate(0,0)"/>
<path d="" fill="#000000" transform="translate(0,0)"/>
<path d="" fill="#000000" transform="translate(0,0)"/>
<path d="" fill="#000000" transform="translate(0,0)"/>
<path d="" fill="#000000" transform="translate(0,0)"/>
<path d="" fill="#000000" transform="translate(0,0)"/>
<path d="" fill="#000000" transform="translate(0,0)"/>
<path d="" fill="#000000" transform="translate(0,0)"/>
<path d="" fill="#000000" transform="translate(0,0)"/>
<path d="" fill="#000000" transform="translate(0,0)"/>
<path d="" fill="#FFFFFF" transform="translate(0,0)"/>
<path d="" fill="#000000" transform="translate(0,0)"/>
<path d="" fill="#000000" transform="translate(0,0)"/>
<path d="" fill="#000000" transform="translate(0,0)"/>
<path d="" fill="#000000" transform="translate(0,0)"/>
<path d="" fill="#000000" transform="translate(0,0)"/>
<path d="" fill="#000000" transform="translate(0,0)"/>
<path d="" fill="#000000" transform="translate(0,0)"/>
<path d="" fill="#000000" transform="translate(0,0)"/>
<path d="" fill="#000000" transform="translate(0,0)"/>
<path d="" fill="#FFFFFF" transform="translate(0,0)"/>
<path d="" fill="#FFFFFF" transform="translate(0,0)"/>
<path d="" fill="#000000" transform="translate(0,0)"/>
<path d="" fill="#000000" transform="translate(0,0)"/>
<path d="" fill="#FFFFFF" transform="translate(0,0)"/>
<path d="" fill="#000000" transform="translate(0,0)"/>
<path d="" fill="#000000" transform="translate(0,0)"/>
<path d="" fill="#000000" transform="translate(0,0)"/>
<path d="" fill="#000000" transform="translate(0,0)"/>
<path d="" fill="#000000" transform="translate(0,0)"/>
<path d="" fill="#000000" transform="translate(0,0)"/>
<path d="" fill="#000000" transform="translate(0,0)"/>
<path d="" fill="#808080" transform="translate(0,0)"/>
<path d="" fill="#000000" transform="translate(0,0)"/>
<path d="" fill="#FFFFFF" transform="translate(0,0)"/>
<path d="" fill="#000000" transform="translate(0,0)"/>
<path d="" fill="#000000" transform="translate(0,0)"/>
<path d="" fill="#000000" transform="translate(0,0)"/>
<path d="" fill="#000000" transform="translate(0,0)"/>
<path d="" fill="#FFFFFF" transform="translate(0,0)"/>
<path d="" fill="#000000" transform="translate(0,0)"/>
<path d="" fill="#000000" transform="translate(0,0)"/>
<path d="" fill="#000000" transform="translate(0,0)"/>
<path d="" fill="#000000" transform="translate(0,0)"/>
<path d="" fill="#000000" transform="translate(0,0)"/>
<path d="" fill="#808080" transform="translate(0,0)"/>
<path d="" fill="#000000" transform="translate(0,0)"/>
<path d="" fill="#000000" transform="translate(0,0)"/>
<path d="" fill="#000000" transform="translate(0,0)"/>
<path d="" fill="#000000" transform="translate(0,0)"/>
<path d="" fill="#000000" transform="translate(0,0)"/>
<path d="" fill="#000000" transform="translate(0,0)"/>
<path d="" fill="#000000" transform="translate(0,0)"/>
<path d="" fill="#000000" transform="translate(0,0)"/>
<path d="" fill="#000000" transform="translate(0,0)"/>
<path d="" fill="#000000" transform="translate(0,0)"/>
<path d="" fill="#FFFFFF" transform="translate(0,0)"/>
<path d="" fill="#000000" transform="translate(0,0)"/>
<path d="" fill="#000000" transform="translate(0,0)"/>
<path d="" fill="#000000" transform="translate(0,0)"/>
<path d="" fill="#000000" transform="translate(0,0)"/>
<path d="" fill="#000000" transform="translate(0,0)"/>
<path d="" fill="#000000" transform="translate(0,0)"/>
<path d="" fill="#000000" transform="translate(0,0)"/>
<path d="" fill="#000000" transform="translate(0,0)"/>
<path d="" fill="#000000" transform="translate(0,0)"/>
<path d="" fill="#000000" transform="translate(0,0)"/>
<path d="" fill="#000000" transform="translate(0,0)"/>
<path d="" fill="#000000" transform="translate(0,0)"/>
<path d="" fill="#FFFFFF" transform="translate(0,0)"/>
<path d="" fill="#000000" transform="translate(0,0)"/>
<path d="" fill="#808080" transform="translate(0,0)"/>
<path d="" fill="#000000" transform="translate(0,0)"/>
<path d="" fill="#000000" transform="translate(0,0)"/>
<path d="" fill="#000000" transform="translate(0,0)"/>
<path d="" fill="#000000" transform="translate(0,0)"/>
<path d="" fill="#000000" transform="translate(0,0)"/>
<path d="" fill="#808080" transform="translate(0,0)"/>
<path d="" fill="#000000" transform="translate(0,0)"/>
<path d="" fill="#000000" transform="translate(0,0)"/>
<path d="" fill="#000000" transform="translate(0,0)"/>
<path d="" fill="#000000" transform="translate(0,0)"/>
<path d="" fill="#000000" transform="translate(0,0)"/>
<path d="" fill="#FFFFFF" transform="translate(0,0)"/>
<path d="" fill="#000000" transform="translate(0,0)"/>
<path d="" fill="#000000" transform="translate(0,0)"/>
<path d="" fill="#000000" transform="translate(0,0)"/>
<path d="" fill="#000000" transform="translate(0,0)"/>
<path d="" fill="#FFFFFF" transform="translate(0,0)"/>
<path d="" fill="#000000" transform="translate(0,0)"/>
<path d="" fill="#000000" transform="translate(0,0)"/>
<path d="" fill="#000000" transform="translate(0,0)"/>
<path d="" fill="#000000" transform="translate(0,0)"/>
<path d="" fill="#000000" transform="translate(0,0)"/>
<path d="" fill="#000000" transform="translate(0,0)"/>
<path d="" fill="#000000" transform="translate(0,0)"/>
<path d="" fill="#000000" transform="translate(0,0)"/>
<path d="" fill="#000000" transform="translate(0,0)"/>
<path d="" fill="#000000" transform="translate(0,0)"/>
<path d="" fill="#FFFFFF" transform="translate(0,0)"/>
<path d="" fill="#000000" transform="translate(0,0)"/>
<path d="" fill="#000000" transform="translate(0,0)"/>
<path d="" fill="#000000" transform="translate(0,0)"/>
<path d="" fill="#000000" transform="translate(0,0)"/>
<path d="" fill="#000000" transform="translate(0,0)"/>
<path d="" fill="#000000" transform="translate(0,0)"/>
<path d="" fill="#FFFFFF" transform="translate(0,0)"/>
<path d="" fill="#FFFFFF" transform="translate(0,0)"/>
<path d="" fill="#000000" transform="translate(0,0)"/>
<path d="" fill="#000000" transform="translate(0,0)"/>
<path d="" fill="#000000" transform="translate(0,0)"/>
<path d="" fill="#000000" transform="translate(0,0)"/>
<path d="" fill="#000000" transform="translate(0,0)"/>
<path d="" fill="#FFFFFF" transform="translate(0,0)"/>
<path d="" fill="#000000" transform="translate(0,0)"/>
<path d="" fill="#000000" transform="translate(0,0)"/>
<path d="" fill="#000000" transform="translate(0,0)"/>
<path d="" fill="#000000" transform="translate(0,0)"/>
<path d="" fill="#000000" transform="translate(0,0)"/>
<path d="" fill="#000000" transform="translate(0,0)"/>
<path d="" fill="#000000" transform="translate(0,0)"/>
<path d="" fill="#000000" transform="translate(0,0)"/>
<path d="" fill="#000000" transform="translate(0,0)"/>
<path d="" fill="#000000" transform="translate(0,0)"/>
<path d="" fill="#000000" transform="translate(0,0)"/>
<path d="" fill="#000000" transform="translate(0,0)"/>
<path d="" fill="#000000" transform="translate(0,0)"/>
<path d="" fill="#000000" transform="translate(0,0)"/>
<path d="" fill="#00FFFF" transform="translate(0,0)"/>
<path d="" fill="#000000" transform="translate(0,0)"/>
<path d="" fill="#FFFFFF" transform="translate(0,0)"/>
<path d="" fill="#000000" transform="translate(0,0)"/>
<path d="" fill="#000000" transform="translate(0,0)"/>
<path d="" fill="#000000" transform="translate(0,0)"/>
<path d="" fill="#000000" transform="translate(0,0)"/>
<path d="" fill="#000000" transform="translate(0,0)"/>
<path d="" fill="#000000" transform="translate(0,0)"/>
<path d="" fill="#000000" transform="translate(0,0)"/>
<path d="" fill="#000000" transform="translate(0,0)"/>
<path d="" fill="#000000" transform="translate(0,0)"/>
<path d="" fill="#000000" transform="translate(0,0)"/>
<path d="" fill="#000000" transform="translate(0,0)"/>
<path d="" fill="#FFFFFF" transform="translate(0,0)"/>
<path d="" fill="#000000" transform="translate(0,0)"/>
<path d="" fill="#000000" transform="translate(0,0)"/>
<path d="" fill="#0000FF" transform="translate(0,0)"/>
<path d="" fill="#0000FF" transform="translate(0,0)"/>
<path d="" fill="#0000FF" transform="translate(0,0)"/>
<path d="" fill="#0000FF" transform="translate(0,0)"/>
<path d="" fill="#000000" transform="translate(0,0)"/>
<path d="" fill="#000000" transform="translate(0,0)"/>
<path d="" fill="#000000" transform="translate(0,0)"/>
<path d="" fill="#000000" transform="translate(0,0)"/>
<path d="" fill="#0000FF" transform="translate(0,0)"/>
<path d="" fill="#0000FF" transform="translate(0,0)"/>
<path d="" fill="#0000FF" transform="translate(0,0)"/>
<path d="" fill="#000000" transform="translate(0,0)"/>
<path d="" fill="#000000" transform="translate(0,0)"/>
<path d="" fill="#0000FF" transform="translate(0,0)"/>
<path d="" fill="#000000" transform="translate(0,0)"/>
<path d="" fill="#FFFFFF" transform="translate(0,0)"/>
<path d="" fill="#000000" transform="translate(0,0)"/>
<path d="" fill="#000000" transform="translate(0,0)"/>
<path d="" fill="#000000" transform="translate(0,0)"/>
<path d="" fill="#FFFFFF" transform="translate(0,0)"/>
<path d="" fill="#0000FF" transform="translate(0,0)"/>
<path d="" fill="#000000" transform="translate(0,0)"/>
<path d="" fill="#FFFFFF" transform="translate(0,0)"/>
<path d="" fill="#000000" transform="translate(0,0)"/>
<path d="" fill="#000000" transform="translate(0,0)"/>
<path d="" fill="#000000" transform="translate(0,0)"/>
<path d="" fill="#000000" transform="translate(0,0)"/>
<path d="" fill="#000000" transform="translate(0,0)"/>
<path d="" fill="#000000" transform="translate(0,0)"/>
<path d="" fill="#000000" transform="translate(0,0)"/>
<path d="" fill="#000000" transform="translate(0,0)"/>
<path d="" fill="#0000FF" transform="translate(0,0)"/>
<path d="" fill="#FFFFFF" transform="translate(0,0)"/>
<path d="" fill="#0000FF" transform="translate(0,0)"/>
<path d="" fill="#0000FF" transform="translate(0,0)"/>
<path d="" fill="#000000" transform="translate(0,0)"/>
<path d="" fill="#0000FF" transform="translate(0,0)"/>
<path d="" fill="#0000FF" transform="translate(0,0)"/>
<path d="" fill="#000000" transform="translate(0,0)"/>
<path d="" fill="#00FFFF" transform="translate(0,0)"/>
<path d="" fill="#0000FF" transform="translate(0,0)"/>
<path d="" fill="#000000" transform="translate(0,0)"/>
<path d="" fill="#000000" transform="translate(0,0)"/>
<path d="" fill="#000000" transform="translate(0,0)"/>
<path d="" fill="#FFFFFF" transform="translate(0,0)"/>
<path d="" fill="#8080FF" transform="translate(0,0)"/>
<path d="" fill="#00FFFF" transform="translate(0,0)"/>
<path d="" fill="#000000" transform="translate(0,0)"/>
<path d="" fill="#00FFFF" transform="translate(0,0)"/>
<path d="" fill="#000000" transform="translate(0,0)"/>
<path d="" fill="#0000FF" transform="translate(0,0)"/>
<path d="" fill="#000000" transform="translate(0,0)"/>
<path d="" fill="#000000" transform="translate(0,0)"/>
<path d="" fill="#000000" transform="translate(0,0)"/>
<path d="" fill="#000000" transform="translate(0,0)"/>
<path d="" fill="#0000FF" transform="translate(0,0)"/>
<path d="" fill="#FFFFFF" transform="translate(0,0)"/>
<path d="" fill="#000000" transform="translate(0,0)"/>
<path d="" fill="#000000" transform="translate(0,0)"/>
<path d="" fill="#000000" transform="translate(0,0)"/>
<path d="" fill="#000000" transform="translate(0,0)"/>
<path d="" fill="#0000FF" transform="translate(0,0)"/>
<path d="" fill="#FFFFFF" transform="translate(0,0)"/>
<path d="" fill="#000000" transform="translate(0,0)"/>
<path d="" fill="#000000" transform="translate(0,0)"/>
<path d="" fill="#000000" transform="translate(0,0)"/>
<path d="" fill="#000000" transform="translate(0,0)"/>
<path d="" fill="#FFFFFF" transform="translate(0,0)"/>
<path d="" fill="#000000" transform="translate(0,0)"/>
<path d="" fill="#000000" transform="translate(0,0)"/>
<path d="" fill="#00FFFF" transform="translate(0,0)"/>
<path d="" fill="#00FFFF" transform="translate(0,0)"/>
<path d="" fill="#FFFFFF" transform="translate(0,0)"/>
<path d="" fill="#000000" transform="translate(0,0)"/>
<path d="" fill="#000000" transform="translate(0,0)"/>
<path d="" fill="#000000" transform="translate(0,0)"/>
<path d="" fill="#00FFFF" transform="translate(0,0)"/>
<path d="" fill="#000000" transform="translate(0,0)"/>
<path d="" fill="#000000" transform="translate(0,0)"/>
<path d="" fill="#000000" transform="translate(0,0)"/>
<path d="" fill="#00FFFF" transform="translate(0,0)"/>
<path d="" fill="#0000FF" transform="translate(0,0)"/>
<path d="" fill="#000000" transform="translate(0,0)"/>
<path d="" fill="#FFFFFF" transform="translate(0,0)"/>
<path d="" fill="#000000" transform="translate(0,0)"/>
<path d="" fill="#000000" transform="translate(0,0)"/>
<path d="" fill="#000000" transform="translate(0,0)"/>
<path d="" fill="#FFFFFF" transform="translate(0,0)"/>
<path d="" fill="#00FFFF" transform="translate(0,0)"/>
<path d="" fill="#000000" transform="translate(0,0)"/>
<path d="" fill="#00FFFF" transform="translate(0,0)"/>
<path d="" fill="#000000" transform="translate(0,0)"/>
<path d="" fill="#000000" transform="translate(0,0)"/>
<path d="" fill="#000000" transform="translate(0,0)"/>
<path d="" fill="#00FFFF" transform="translate(0,0)"/>
<path d="" fill="#FFFFFF" transform="translate(0,0)"/>
<path d="" fill="#000000" transform="translate(0,0)"/>
<path d="" fill="#00FFFF" transform="translate(0,0)"/>
<path d="" fill="#000000" transform="translate(0,0)"/>
<path d="" fill="#000000" transform="translate(0,0)"/>
<path d="" fill="#000000" transform="translate(0,0)"/>
<path d="" fill="#FFFFFF" transform="translate(0,0)"/>
<path d="" fill="#000000" transform="translate(0,0)"/>
<path d="" fill="#00FFFF" transform="translate(0,0)"/>
<path d="" fill="#000000" transform="translate(0,0)"/>
<path d="" fill="#000000" transform="translate(0,0)"/>
<path d="" fill="#000000" transform="translate(0,0)"/>
<path d="" fill="#000000" transform="translate(0,0)"/>
<path d="" fill="#000000" transform="translate(0,0)"/>
<path d="" fill="#00FFFF" transform="translate(0,0)"/>
<path d="" fill="#000000" transform="translate(0,0)"/>
<path d="" fill="#000000" transform="translate(0,0)"/>
<path d="" fill="#000000" transform="translate(0,0)"/>
<path d="" fill="#000000" transform="translate(0,0)"/>
<path d="" fill="#000000" transform="translate(0,0)"/>
<path d="" fill="#00FFFF" transform="translate(0,0)"/>
<path d="" fill="#0000FF" transform="translate(0,0)"/>
<path d="" fill="#00FFFF" transform="translate(0,0)"/>
<path d="" fill="#000000" transform="translate(0,0)"/>
<path d="" fill="#000000" transform="translate(0,0)"/>
<path d="" fill="#00FFFF" transform="translate(0,0)"/>
<path d="" fill="#00FFFF" transform="translate(0,0)"/>
<path d="" fill="#000000" transform="translate(0,0)"/>
<path d="" fill="#000000" transform="translate(0,0)"/>
<path d="" fill="#000000" transform="translate(0,0)"/>
<path d="" fill="#00FFFF" transform="translate(0,0)"/>
<path d="" fill="#000000" transform="translate(0,0)"/>
<path d="" fill="#00FFFF" transform="translate(0,0)"/>
<path d="" fill="#000000" transform="translate(0,0)"/>
<path d="" fill="#000000" transform="translate(0,0)"/>
<path d="" fill="#000000" transform="translate(0,0)"/>
<path d="" fill="#000000" transform="translate(0,0)"/>
<path d="" fill="#000000" transform="translate(0,0)"/>
<path d="" fill="#00FFFF" transform="translate(0,0)"/>
<path d="" fill="#00FFFF" transform="translate(0,0)"/>
<path d="" fill="#000000" transform="translate(0,0)"/>
<path d="" fill="#000000" transform="translate(0,0)"/>
<path d="" fill="#00FFFF" transform="translate(0,0)"/>
<path d="" fill="#FFFFFF" transform="translate(0,0)"/>
<path d="" fill="#00FFFF" transform="translate(0,0)"/>
<path d="" fill="#000000" transform="translate(0,0)"/>
<path d="" fill="#0000FF" transform="translate(0,0)"/>
<path d="" fill="#000000" transform="translate(0,0)"/>
<path d="" fill="#000000" transform="translate(0,0)"/>
<path d="" fill="#000000" transform="translate(0,0)"/>
<path d="" fill="#000000" transform="translate(0,0)"/>
<path d="" fill="#000000" transform="translate(0,0)"/>
<path d="" fill="#00FFFF" transform="translate(0,0)"/>
<path d="" fill="#000000" transform="translate(0,0)"/>
<path d="" fill="#00FFFF" transform="translate(0,0)"/>
<path d="" fill="#000000" transform="translate(0,0)"/>
<path d="" fill="#FFFFFF" transform="translate(0,0)"/>
<path d="" fill="#0000FF" transform="translate(0,0)"/>
<path d="" fill="#FFFFFF" transform="translate(0,0)"/>
<path d="" fill="#00FFFF" transform="translate(0,0)"/>
<path d="" fill="#FFFFFF" transform="translate(0,0)"/>
<path d="" fill="#000000" transform="translate(0,0)"/>
<path d="" fill="#FFFFFF" transform="translate(0,0)"/>
<path d="" fill="#000000" transform="translate(0,0)"/>
<path d="" fill="#000000" transform="translate(0,0)"/>
<path d="" fill="#000000" transform="translate(0,0)"/>
<path d="" fill="#00FFFF" transform="translate(0,0)"/>
<path d="" fill="#FFFFFF" transform="translate(0,0)"/>
<path d="" fill="#000000" transform="translate(0,0)"/>
<path d="" fill="#00FFFF" transform="translate(0,0)"/>
<path d="" fill="#000000" transform="translate(0,0)"/>
<path d="" fill="#000000" transform="translate(0,0)"/>
<path d="" fill="#FFFFFF" transform="translate(0,0)"/>
<path d="" fill="#00FFFF" transform="translate(0,0)"/>
<path d="" fill="#000000" transform="translate(0,0)"/>
<path d="" fill="#000000" transform="translate(0,0)"/>
<path d="" fill="#00FFFF" transform="translate(0,0)"/>
<path d="" fill="#FFFFFF" transform="translate(0,0)"/>
<path d="" fill="#00FFFF" transform="translate(0,0)"/>
<path d="" fill="#FFFFFF" transform="translate(0,0)"/>
<path d="" fill="#FFFFFF" transform="translate(0,0)"/>
<path d="" fill="#00FFFF" transform="translate(0,0)"/>
<path d="" fill="#000000" transform="translate(0,0)"/>
<path d="" fill="#000000" transform="translate(0,0)"/>
<path d="" fill="#000000" transform="translate(0,0)"/>
<path d="" fill="#000000" transform="translate(0,0)"/>
<path d="" fill="#000000" transform="translate(0,0)"/>
<path d="" fill="#FFFFFF" transform="translate(0,0)"/>
<path d="" fill="#FFFFFF" transform="translate(0,0)"/>
<path d="" fill="#000000" transform="translate(0,0)"/>
<path d="" fill="#FFFFFF" transform="translate(0,0)"/>
<path d="" fill="#FFFFFF" transform="translate(0,0)"/>
<path d="" fill="#000000" transform="translate(0,0)"/>
<path d="" fill="#000000" transform="translate(0,0)"/>
<path d="" fill="#000000" transform="translate(0,0)"/>
<path d="" fill="#000000" transform="translate(0,0)"/>
<path d="" fill="#FFFFFF" transform="translate(0,0)"/>
<path d="" fill="#808080" transform="translate(0,0)"/>
<path d="" fill="#000000" transform="translate(0,0)"/>
<path d="" fill="#00FFFF" transform="translate(0,0)"/>
<path d="" fill="#FFFFFF" transform="translate(0,0)"/>
<path d="" fill="#FFFFFF" transform="translate(0,0)"/>
<path d="" fill="#FFFFFF" transform="translate(0,0)"/>
<path d="" fill="#000000" transform="translate(0,0)"/>
<path d="" fill="#FFFFFF" transform="translate(0,0)"/>
<path d="" fill="#FFFFFF" transform="translate(0,0)"/>
<path d="" fill="#000000" transform="translate(0,0)"/>
<path d="" fill="#00FFFF" transform="translate(0,0)"/>
<path d="" fill="#000000" transform="translate(0,0)"/>
<path d="" fill="#FFFFFF" transform="translate(0,0)"/>
<path d="" fill="#000000" transform="translate(0,0)"/>
<path d="" fill="#000000" transform="translate(0,0)"/>
<path d="" fill="#000000" transform="translate(0,0)"/>
<path d="" fill="#000000" transform="translate(0,0)"/>
<path d="" fill="#000000" transform="translate(0,0)"/>
<path d="" fill="#00FFFF" transform="translate(0,0)"/>
<path d="" fill="#FFFFFF" transform="translate(0,0)"/>
<path d="" fill="#000000" transform="translate(0,0)"/>
<path d="" fill="#000000" transform="translate(0,0)"/>
<path d="" fill="#808080" transform="translate(0,0)"/>
<path d="" fill="#000000" transform="translate(0,0)"/>
<path d="" fill="#00FFFF" transform="translate(0,0)"/>
<path d="" fill="#FFFFFF" transform="translate(0,0)"/>
<path d="" fill="#000000" transform="translate(0,0)"/>
<path d="" fill="#FFFFFF" transform="translate(0,0)"/>
<path d="" fill="#000000" transform="translate(0,0)"/>
<path d="" fill="#000000" transform="translate(0,0)"/>
<path d="" fill="#000000" transform="translate(0,0)"/>
<path d="" fill="#FFFFFF" transform="translate(0,0)"/>
<path d="" fill="#000000" transform="translate(0,0)"/>
<path d="" fill="#FFFFFF" transform="translate(0,0)"/>
<path d="" fill="#FFFFFF" transform="translate(0,0)"/>
<path d="" fill="#000000" transform="translate(0,0)"/>
<path d="" fill="#000000" transform="translate(0,0)"/>
<path d="" fill="#FFFFFF" transform="translate(0,0)"/>
<path d="" fill="#FFFFFF" transform="translate(0,0)"/>
<path d="" fill="#000000" transform="translate(0,0)"/>
<path d="" fill="#000000" transform="translate(0,0)"/>
<path d="" fill="#000000" transform="translate(0,0)"/>
<path d="" fill="#FFFFFF" transform="translate(0,0)"/>
<path d="" fill="#FFFFFF" transform="translate(0,0)"/>
<path d="" fill="#FFFFFF" transform="translate(0,0)"/>
<path d="" fill="#000000" transform="translate(0,0)"/>
<path d="" fill="#FFFFFF" transform="translate(0,0)"/>
<path d="" fill="#000000" transform="translate(0,0)"/>
<path d="" fill="#000000" transform="translate(0,0)"/>
<path d="" fill="#000000" transform="translate(0,0)"/>
<path d="" fill="#00FFFF" transform="translate(0,0)"/>
<path d="" fill="#000000" transform="translate(0,0)"/>
<path d="" fill="#000000" transform="translate(0,0)"/>
<path d="" fill="#000000" transform="translate(0,0)"/>
<path d="" fill="#00FFFF" transform="translate(0,0)"/>
<path d="" fill="#000000" transform="translate(0,0)"/>
<path d="" fill="#000000" transform="translate(0,0)"/>
<path d="" fill="#000000" transform="translate(0,0)"/>
<path d="" fill="#FFFFFF" transform="translate(0,0)"/>
<path d="" fill="#FFFFFF" transform="translate(0,0)"/>
<path d="" fill="#000000" transform="translate(0,0)"/>
<path d="" fill="#FFFFFF" transform="translate(0,0)"/>
<path d="" fill="#000000" transform="translate(0,0)"/>
<path d="" fill="#000000" transform="translate(0,0)"/>
<path d="" fill="#FFFFFF" transform="translate(0,0)"/>
<path d="" fill="#FFFFFF" transform="translate(0,0)"/>
<path d="" fill="#000000" transform="translate(0,0)"/>
<path d="" fill="#000000" transform="translate(0,0)"/>
<path d="" fill="#00FF00" transform="translate(0,0)"/>
<path d="" fill="#00FFFF" transform="translate(0,0)"/>
<path d="" fill="#000000" transform="translate(0,0)"/>
<path d="" fill="#000000" transform="translate(0,0)"/>
<path d="" fill="#000000" transform="translate(0,0)"/>
<path d="" fill="#FFFFFF" transform="translate(0,0)"/>
<path d="" fill="#000000" transform="translate(0,0)"/>
<path d="" fill="#000000" transform="translate(0,0)"/>
<path d="" fill="#000000" transform="translate(0,0)"/>
<path d="" fill="#000000" transform="translate(0,0)"/>
<path d="" fill="#FFFFFF" transform="translate(0,0)"/>
<path d="" fill="#000000" transform="translate(0,0)"/>
<path d="" fill="#00FFFF" transform="translate(0,0)"/>
<path d="" fill="#FFFFFF" transform="translate(0,0)"/>
<path d="" fill="#000000" transform="translate(0,0)"/>
<path d="" fill="#00FFFF" transform="translate(0,0)"/>
<path d="" fill="#FFFFFF" transform="translate(0,0)"/>
<path d="" fill="#FFFFFF" transform="translate(0,0)"/>
<path d="" fill="#FFFFFF" transform="translate(0,0)"/>
<path d="" fill="#00FF00" transform="translate(0,0)"/>
<path d="" fill="#00FFFF" transform="translate(0,0)"/>
<path d="" fill="#FFFFFF" transform="translate(0,0)"/>
<path d="" fill="#000000" transform="translate(0,0)"/>
<path d="" fill="#FFFFFF" transform="translate(0,0)"/>
<path d="" fill="#FFFFFF" transform="translate(0,0)"/>
<path d="" fill="#000000" transform="translate(0,0)"/>
<path d="" fill="#000000" transform="translate(0,0)"/>
<path d="" fill="#000000" transform="translate(0,0)"/>
<path d="" fill="#000000" transform="translate(0,0)"/>
<path d="" fill="#FFFFFF" transform="translate(0,0)"/>
<path d="" fill="#000000" transform="translate(0,0)"/>
<path d="" fill="#000000" transform="translate(0,0)"/>
<path d="" fill="#FFFFFF" transform="translate(0,0)"/>
<path d="" fill="#FFFFFF" transform="translate(0,0)"/>
<path d="" fill="#FFFFFF" transform="translate(0,0)"/>
<path d="" fill="#000000" transform="translate(0,0)"/>
<path d="" fill="#000000" transform="translate(0,0)"/>
<path d="" fill="#000000" transform="translate(0,0)"/>
<path d="" fill="#000000" transform="translate(0,0)"/>
<path d="" fill="#00FFFF" transform="translate(0,0)"/>
<path d="" fill="#00FFFF" transform="translate(0,0)"/>
<path d="" fill="#000000" transform="translate(0,0)"/>
<path d="" fill="#000000" transform="translate(0,0)"/>
<path d="" fill="#000000" transform="translate(0,0)"/>
<path d="" fill="#000000" transform="translate(0,0)"/>
<path d="" fill="#000000" transform="translate(0,0)"/>
<path d="" fill="#FFFFFF" transform="translate(0,0)"/>
<path d="" fill="#00FF00" transform="translate(0,0)"/>
<path d="" fill="#000000" transform="translate(0,0)"/>
<path d="" fill="#FFFFFF" transform="translate(0,0)"/>
<path d="" fill="#000000" transform="translate(0,0)"/>
<path d="" fill="#FFFFFF" transform="translate(0,0)"/>
<path d="" fill="#000000" transform="translate(0,0)"/>
<path d="" fill="#000000" transform="translate(0,0)"/>
<path d="" fill="#000000" transform="translate(0,0)"/>
<path d="" fill="#808080" transform="translate(0,0)"/>
<path d="" fill="#000000" transform="translate(0,0)"/>
<path d="" fill="#000000" transform="translate(0,0)"/>
<path d="" fill="#000000" transform="translate(0,0)"/>
<path d="" fill="#000000" transform="translate(0,0)"/>
<path d="" fill="#000000" transform="translate(0,0)"/>
<path d="" fill="#FFFFFF" transform="translate(0,0)"/>
<path d="" fill="#000000" transform="translate(0,0)"/>
<path d="" fill="#FFFFFF" transform="translate(0,0)"/>
<path d="" fill="#FFFFFF" transform="translate(0,0)"/>
<path d="" fill="#808080" transform="translate(0,0)"/>
<path d="" fill="#000000" transform="translate(0,0)"/>
<path d="" fill="#000000" transform="translate(0,0)"/>
<path d="" fill="#000000" transform="translate(0,0)"/>
<path d="" fill="#000000" transform="translate(0,0)"/>
<path d="" fill="#000000" transform="translate(0,0)"/>
<path d="" fill="#000000" transform="translate(0,0)"/>
<path d="" fill="#FFFFFF" transform="translate(0,0)"/>
<path d="" fill="#000000" transform="translate(0,0)"/>
<path d="" fill="#000000" transform="translate(0,0)"/>
<path d="" fill="#FFFFFF" transform="translate(0,0)"/>
<path d="" fill="#000000" transform="translate(0,0)"/>
<path d="" fill="#000000" transform="translate(0,0)"/>
<path d="" fill="#000000" transform="translate(0,0)"/>
<path d="" fill="#000000" transform="translate(0,0)"/>
<path d="" fill="#000000" transform="translate(0,0)"/>
<path d="" fill="#000000" transform="translate(0,0)"/>
<path d="" fill="#000000" transform="translate(0,0)"/>
<path d="" fill="#000000" transform="translate(0,0)"/>
<path d="" fill="#000000" transform="translate(0,0)"/>
<path d="" fill="#000000" transform="translate(0,0)"/>
<path d="" fill="#FFFFFF" transform="translate(0,0)"/>
<path d="" fill="#000000" transform="translate(0,0)"/>
<path d="" fill="#000000" transform="translate(0,0)"/>
<path d="" fill="#000000" transform="translate(0,0)"/>
<path d="" fill="#000000" transform="translate(0,0)"/>
<path d="" fill="#000000" transform="translate(0,0)"/>
<path d="" fill="#000000" transform="translate(0,0)"/>
<path d="" fill="#000000" transform="translate(0,0)"/>
<path d="" fill="#000000" transform="translate(0,0)"/>
<path d="" fill="#000000" transform="translate(0,0)"/>
<path d="" fill="#000000" transform="translate(0,0)"/>
<path d="" fill="#000000" transform="translate(0,0)"/>
<path d="" fill="#000000" transform="translate(0,0)"/>
<path d="" fill="#000000" transform="translate(0,0)"/>
<path d="" fill="#000000" transform="translate(0,0)"/>
<path d="" fill="#000000" transform="translate(0,0)"/>
<path d="" fill="#000000" transform="translate(0,0)"/>
<path d="" fill="#000000" transform="translate(0,0)"/>
<path d="" fill="#000000" transform="translate(0,0)"/>
<path d="" fill="#000000" transform="translate(0,0)"/>
<path d="" fill="#000000" transform="translate(0,0)"/>
<path d="" fill="#000000" transform="translate(0,0)"/>
<path d="" fill="#000000" transform="translate(0,0)"/>
<path d="" fill="#808080" transform="translate(0,0)"/>
<path d="" fill="#000000" transform="translate(0,0)"/>
<path d="" fill="#000000" transform="translate(0,0)"/>
<path d="" fill="#000000" transform="translate(0,0)"/>
<path d="" fill="#000000" transform="translate(0,0)"/>
<path d="" fill="#000000" transform="translate(0,0)"/>
<path d="" fill="#000000" transform="translate(0,0)"/>
<path d="" fill="#000000" transform="translate(0,0)"/>
<path d="" fill="#000000" transform="translate(0,0)"/>
<path d="" fill="#000000" transform="translate(0,0)"/>
<path d="" fill="#FFFFFF" transform="translate(0,0)"/>
<path d="" fill="#000000" transform="translate(0,0)"/>
<path d="" fill="#000000" transform="translate(0,0)"/>
<path d="" fill="#000000" transform="translate(0,0)"/>
<path d="" fill="#000000" transform="translate(0,0)"/>
<path d="" fill="#000000" transform="translate(0,0)"/>
<path d="" fill="#FFFFFF" transform="translate(0,0)"/>
<path d="" fill="#000000" transform="translate(0,0)"/>
<path d="" fill="#000000" transform="translate(0,0)"/>
<path d="" fill="#000000" transform="translate(0,0)"/>
<path d="" fill="#000000" transform="translate(0,0)"/>
<path d="" fill="#000000" transform="translate(0,0)"/>
<path d="" fill="#000000" transform="translate(0,0)"/>
<path d="" fill="#000000" transform="translate(0,0)"/>
<path d="" fill="#808080" transform="translate(0,0)"/>
<path d="" fill="#000000" transform="translate(0,0)"/>
<path d="" fill="#000000" transform="translate(0,0)"/>
<path d="" fill="#000000" transform="translate(0,0)"/>
<path d="" fill="#000000" transform="translate(0,0)"/>
<path d="" fill="#000000" transform="translate(0,0)"/>
<path d="" fill="#000000" transform="translate(0,0)"/>
<path d="" fill="#000000" transform="translate(0,0)"/>
<path d="" fill="#000000" transform="translate(0,0)"/>
<path d="" fill="#FFFFFF" transform="translate(0,0)"/>
<path d="" fill="#000000" transform="translate(0,0)"/>
<path d="" fill="#FFFFFF" transform="translate(0,0)"/>
<path d="" fill="#000000" transform="translate(0,0)"/>
<path d="" fill="#000000" transform="translate(0,0)"/>
<path d="" fill="#FFFFFF" transform="translate(0,0)"/>
<path d="" fill="#000000" transform="translate(0,0)"/>
<path d="" fill="#000000" transform="translate(0,0)"/>
<path d="" fill="#000000" transform="translate(0,0)"/>
<path d="" fill="#000000" transform="translate(0,0)"/>
<path d="" fill="#000000" transform="translate(0,0)"/>
<path d="" fill="#FFFFFF" transform="translate(0,0)"/>
<path d="" fill="#000000" transform="translate(0,0)"/>
<path d="" fill="#000000" transform="translate(0,0)"/>
<path d="" fill="#000000" transform="translate(0,0)"/>
<path d="" fill="#FFFFFF" transform="translate(0,0)"/>
<path d="" fill="#000000" transform="translate(0,0)"/>
<path d="" fill="#000000" transform="translate(0,0)"/>
<path d="" fill="#000000" transform="translate(0,0)"/>
<path d="" fill="#000000" transform="translate(0,0)"/>
<path d="" fill="#000000" transform="translate(0,0)"/>
<path d="" fill="#000000" transform="translate(0,0)"/>
<path d="" fill="#FFFFFF" transform="translate(0,0)"/>
<path d="" fill="#000000" transform="translate(0,0)"/>
<path d="" fill="#000000" transform="translate(0,0)"/>
<path d="" fill="#000000" transform="translate(0,0)"/>
<path d="" fill="#000000" transform="translate(0,0)"/>
<path d="" fill="#000000" transform="translate(0,0)"/>
<path d="" fill="#000000" transform="translate(0,0)"/>
<path d="" fill="#000000" transform="translate(0,0)"/>
<path d="" fill="#000000" transform="translate(0,0)"/>
<path d="" fill="#000000" transform="translate(0,0)"/>
<path d="" fill="#000000" transform="translate(0,0)"/>
<path d="" fill="#000000" transform="translate(0,0)"/>
<path d="" fill="#000000" transform="translate(0,0)"/>
<path d="" fill="#000000" transform="translate(0,0)"/>
<path d="" fill="#000000" transform="translate(0,0)"/>
<path d="" fill="#000000" transform="translate(0,0)"/>
<path d="" fill="#000000" transform="translate(0,0)"/>
<path d="" fill="#000000" transform="translate(0,0)"/>
<path d="" fill="#FFFFFF" transform="translate(0,0)"/>
<path d="" fill="#000000" transform="translate(0,0)"/>
<path d="" fill="#FFFFFF" transform="translate(0,0)"/>
<path d="" fill="#808080" transform="translate(0,0)"/>
<path d="" fill="#000000" transform="translate(0,0)"/>
<path d="" fill="#000000" transform="translate(0,0)"/>
<path d="" fill="#000000" transform="translate(0,0)"/>
<path d="" fill="#FFFFFF" transform="translate(0,0)"/>
<path d="" fill="#808080" transform="translate(0,0)"/>
<path d="" fill="#000000" transform="translate(0,0)"/>
<path d="" fill="#000000" transform="translate(0,0)"/>
<path d="" fill="#000000" transform="translate(0,0)"/>
<path d="" fill="#000000" transform="translate(0,0)"/>
<path d="" fill="#000000" transform="translate(0,0)"/>
<path d="" fill="#000000" transform="translate(0,0)"/>
<path d="" fill="#FFFFFF" transform="translate(0,0)"/>
<path d="" fill="#FFFFFF" transform="translate(0,0)"/>
<path d="" fill="#000000" transform="translate(0,0)"/>
<path d="" fill="#000000" transform="translate(0,0)"/>
<path d="" fill="#000000" transform="translate(0,0)"/>
<path d="" fill="#000000" transform="translate(0,0)"/>
<path d="" fill="#000000" transform="translate(0,0)"/>
<path d="" fill="#000000" transform="translate(0,0)"/>
<path d="" fill="#000000" transform="translate(0,0)"/>
<path d="" fill="#FFFFFF" transform="translate(0,0)"/>
<path d="" fill="#000000" transform="translate(0,0)"/>
<path d="" fill="#000000" transform="translate(0,0)"/>
<path d="" fill="#000000" transform="translate(0,0)"/>
<path d="" fill="#000000" transform="translate(0,0)"/>
<path d="" fill="#000000" transform="translate(0,0)"/>
<path d="" fill="#000000" transform="translate(0,0)"/>
<path d="" fill="#000000" transform="translate(0,0)"/>
<path d="" fill="#000000" transform="translate(0,0)"/>
<path d="" fill="#808080" transform="translate(0,0)"/>
<path d="" fill="#000000" transform="translate(0,0)"/>
<path d="" fill="#000000" transform="translate(0,0)"/>
<path d="" fill="#000000" transform="translate(0,0)"/>
<path d="" fill="#000000" transform="translate(0,0)"/>
<path d="" fill="#000000" transform="translate(0,0)"/>
<path d="" fill="#000000" transform="translate(0,0)"/>
<path d="" fill="#000000" transform="translate(0,0)"/>
<path d="" fill="#FFFFFF" transform="translate(0,0)"/>
<path d="" fill="#000000" transform="translate(0,0)"/>
<path d="" fill="#000000" transform="translate(0,0)"/>
<path d="" fill="#000000" transform="translate(0,0)"/>
<path d="" fill="#000000" transform="translate(0,0)"/>
<path d="" fill="#000000" transform="translate(0,0)"/>
<path d="" fill="#FFFFFF" transform="translate(0,0)"/>
<path d="" fill="#000000" transform="translate(0,0)"/>
<path d="" fill="#000000" transform="translate(0,0)"/>
<path d="" fill="#000000" transform="translate(0,0)"/>
<path d="" fill="#000000" transform="translate(0,0)"/>
<path d="" fill="#000000" transform="translate(0,0)"/>
<path d="" fill="#000000" transform="translate(0,0)"/>
<path d="" fill="#FFFFFF" transform="translate(0,0)"/>
<path d="" fill="#FFFFFF" transform="translate(0,0)"/>
<path d="" fill="#000000" transform="translate(0,0)"/>
<path d="" fill="#000000" transform="translate(0,0)"/>
<path d="" fill="#000000" transform="translate(0,0)"/>
<path d="" fill="#000000" transform="translate(0,0)"/>
<path d="" fill="#000000" transform="translate(0,0)"/>
<path d="" fill="#000000" transform="translate(0,0)"/>
<path d="" fill="#000000" transform="translate(0,0)"/>
<path d="" fill="#000000" transform="translate(0,0)"/>
<path d="" fill="#000000" transform="translate(0,0)"/>
<path d="" fill="#000000" transform="translate(0,0)"/>
<path d="" fill="#000000" transform="translate(0,0)"/>
<path d="" fill="#000000" transform="translate(0,0)"/>
<path d="" fill="#000000" transform="translate(0,0)"/>
<path d="" fill="#000000" transform="translate(0,0)"/>
<path d="" fill="#000000" transform="translate(0,0)"/>
<path d="" fill="#000000" transform="translate(0,0)"/>
<path d="" fill="#000000" transform="translate(0,0)"/>
<path d="" fill="#000000" transform="translate(0,0)"/>
<path d="" fill="#FFFFFF" transform="translate(0,0)"/>
<path d="" fill="#000000" transform="translate(0,0)"/>
<path d="" fill="#FFFFFF" transform="translate(0,0)"/>
<path d="" fill="#000000" transform="translate(0,0)"/>
<path d="" fill="#000000" transform="translate(0,0)"/>
<path d="" fill="#000000" transform="translate(0,0)"/>
<path d="" fill="#FFFFFF" transform="translate(0,0)"/>
<path d="" fill="#000000" transform="translate(0,0)"/>
<path d="" fill="#000000" transform="translate(0,0)"/>
<path d="" fill="#000000" transform="translate(0,0)"/>
<path d="" fill="#000000" transform="translate(0,0)"/>
<path d="" fill="#808080" transform="translate(0,0)"/>
<path d="" fill="#000000" transform="translate(0,0)"/>
<path d="" fill="#000000" transform="translate(0,0)"/>
<path d="" fill="#000000" transform="translate(0,0)"/>
<path d="" fill="#000000" transform="translate(0,0)"/>
<path d="" fill="#FFFFFF" transform="translate(0,0)"/>
<path d="" fill="#000000" transform="translate(0,0)"/>
<path d="" fill="#808080" transform="translate(0,0)"/>
<path d="" fill="#000000" transform="translate(0,0)"/>
<path d="" fill="#000000" transform="translate(0,0)"/>
<path d="" fill="#000000" transform="translate(0,0)"/>
<path d="" fill="#FFFFFF" transform="translate(0,0)"/>
<path d="" fill="#000000" transform="translate(0,0)"/>
<path d="" fill="#000000" transform="translate(0,0)"/>
<path d="" fill="#000000" transform="translate(0,0)"/>
<path d="" fill="#000000" transform="translate(0,0)"/>
<path d="" fill="#000000" transform="translate(0,0)"/>
<path d="" fill="#000000" transform="translate(0,0)"/>
<path d="" fill="#000000" transform="translate(0,0)"/>
<path d="" fill="#000000" transform="translate(0,0)"/>
<path d="" fill="#000000" transform="translate(0,0)"/>
<path d="" fill="#000000" transform="translate(0,0)"/>
<path d="" fill="#808080" transform="translate(0,0)"/>
<path d="" fill="#000000" transform="translate(0,0)"/>
<path d="" fill="#000000" transform="translate(0,0)"/>
<path d="" fill="#FFFFFF" transform="translate(0,0)"/>
<path d="" fill="#000000" transform="translate(0,0)"/>
<path d="" fill="#000000" transform="translate(0,0)"/>
</svg>
